<svg width="32" height="34" viewBox="0 0 32 34" fill="none" xmlns="http://www.w3.org/2000/svg">
<path opacity="0.5" d="M10.8857 0.762451C12.0559 0.742929 12.7486 1.5585 12.7559 2.25757L12.8711 13.2546C12.8782 13.9359 13.4221 14.4746 14.0859 14.4578C14.75 14.4407 15.2825 13.8746 15.2754 13.1931L15.1895 4.94507C15.1824 4.25825 15.8413 3.4295 17.0068 3.40991C18.1769 3.39039 18.8695 4.206 18.877 4.90503L18.9941 16.0769C19.0025 16.8948 18.4155 17.5866 17.6611 17.8621C14.9627 18.8477 12.9552 21.2722 12.9863 24.2527C12.9913 24.73 13.2599 25.1365 13.6484 25.3318C13.2 26.3851 12.9522 27.5444 12.9521 28.7615C12.9521 29.6121 13.0757 30.434 13.3018 31.2117C7.56018 30.8661 3.22893 26.6228 3.17676 21.6453L3.04785 9.27222C3.04093 8.58539 3.69963 7.75651 4.86523 7.73706C6.0351 7.71755 6.72775 8.53322 6.73535 9.23218L6.79297 14.7312C6.80009 15.4125 7.34395 15.9511 8.00781 15.9343C8.67185 15.9173 9.20439 15.3511 9.19727 14.6697L9.06836 2.29761C9.06118 1.61073 9.72 0.781969 10.8857 0.762451ZM23.1855 11.5564C24.3555 11.5369 25.0482 12.3525 25.0557 13.0515L25.1357 20.6931C24.0846 20.2468 22.9279 19.9998 21.7139 19.9998C19.5167 19.9999 17.5096 20.8101 15.9717 22.1462C16.7628 20.8476 18.3029 19.8874 20.2256 19.8552C20.5462 19.8499 20.8538 19.7138 21.0791 19.4763C21.3044 19.2388 21.4292 18.9197 21.4258 18.5906L21.3682 13.0916C21.3612 12.4048 22.0201 11.576 23.1855 11.5564Z" fill="#FF8000"/>
<path fill-rule="evenodd" clip-rule="evenodd" d="M21.7147 19.2615C17.7172 19.2615 14.4766 22.5021 14.4766 26.4996C14.4766 30.4971 17.7172 33.7377 21.7147 33.7377C25.7121 33.7377 28.9528 30.4971 28.9528 26.4996C28.9528 22.5021 25.7121 19.2615 21.7147 19.2615ZM19.5432 26.4996C18.344 26.4996 17.3718 27.4718 17.3718 28.671C17.3718 29.8702 18.344 30.8424 19.5432 30.8424C20.7425 30.8424 21.7147 29.8702 21.7147 28.671C21.7147 27.4718 20.7425 26.4996 19.5432 26.4996ZM16.7935 24.9123C17.0705 25.027 17.202 25.3445 17.0873 25.6215L16.7876 26.3453C16.673 26.6223 16.3554 26.7539 16.0784 26.6392C15.8014 26.5245 15.6698 26.207 15.7845 25.93L16.0842 25.2062C16.1989 24.9292 16.5165 24.7976 16.7935 24.9123ZM22.961 23.0788C23.0017 23.3745 23.2734 23.5815 23.5689 23.5429C24.0485 23.5166 25.0077 23.7674 25.0077 24.9817C24.9691 25.2772 25.1761 25.5489 25.4718 25.5896C25.7688 25.6306 26.0457 25.3989 26.0867 25.1019C26.088 25.0903 26.0895 25.0752 26.091 25.057C26.0941 25.0206 26.0971 24.9711 26.0982 24.9111C26.1003 24.7918 26.0948 24.6269 26.0646 24.4372C26.0047 24.0609 25.842 23.5566 25.418 23.1326C24.994 22.7085 24.4897 22.5459 24.1134 22.486C23.9237 22.4558 23.7588 22.4503 23.6395 22.4524C23.5795 22.4535 23.53 22.4565 23.4936 22.4596C23.4754 22.4611 23.4286 22.4663 23.4286 22.4663C23.1316 22.5073 22.92 22.7818 22.961 23.0788ZM20.0811 24.466C20.122 24.763 19.9145 25.0369 19.6175 25.0779L19.6166 25.078L19.6157 25.0781L19.6135 25.0784L19.6081 25.0791L19.5933 25.0809C19.5817 25.0822 19.5667 25.0837 19.5484 25.0852C19.512 25.0882 19.4626 25.0913 19.4026 25.0923C19.2832 25.0945 19.1184 25.089 18.9287 25.0588C18.5523 24.9988 18.0481 24.8362 17.624 24.4122C17.2 23.9881 17.0374 23.4839 16.9774 23.1075C16.9472 22.9178 16.9417 22.753 16.9439 22.6336C16.9449 22.5736 16.948 22.5242 16.951 22.4878C16.9525 22.4695 16.954 22.4545 16.9553 22.4429L16.9571 22.4281L16.9578 22.4227C16.9987 22.1257 17.2732 21.9142 17.5702 21.9551C17.8659 21.9959 18.0729 22.2676 18.0344 22.563C18.0081 23.0426 18.259 24.0018 19.4732 24.0018C19.7686 23.9633 20.0403 24.1703 20.0811 24.466ZM27.3142 27.2181C27.3708 27.5086 27.1844 27.79 26.8966 27.8524L26.8947 27.8529C26.8883 27.8547 26.8735 27.8592 26.8525 27.8675C26.8101 27.8843 26.7447 27.9154 26.6713 27.9691C26.5321 28.071 26.3396 28.2714 26.2319 28.6733C26.1242 29.0754 26.1907 29.3451 26.2604 29.503C26.297 29.5862 26.3381 29.6459 26.3664 29.6815C26.3805 29.6992 26.3911 29.7105 26.3957 29.7153L26.3971 29.7167C26.6151 29.9146 26.6358 30.2516 26.4416 30.4748C26.2448 30.701 25.9019 30.7248 25.6757 30.528L26.0319 30.1186C25.6757 30.528 25.676 30.5283 25.6757 30.528L25.6747 30.5272L25.6736 30.5262L25.6713 30.5242L25.6661 30.5195L25.6529 30.5073C25.6431 30.498 25.631 30.4863 25.6173 30.4721C25.5898 30.4438 25.5551 30.4056 25.5166 30.3572C25.4399 30.2607 25.3467 30.1222 25.2669 29.941C25.1035 29.5704 25.0077 29.0473 25.1832 28.3924C25.3587 27.7374 25.7031 27.3323 26.03 27.093C26.1897 26.9761 26.3397 26.9026 26.4544 26.8574C26.5119 26.8348 26.5611 26.819 26.599 26.8083C26.618 26.8029 26.6343 26.7987 26.6475 26.7956L26.6649 26.7917L26.6719 26.7902L26.6749 26.7896L26.6763 26.7893C26.6766 26.7893 26.6776 26.7891 26.7814 27.3219L26.6776 26.7891C26.9719 26.7317 27.2569 26.9238 27.3142 27.2181ZM22.3146 30.3441C22.4987 30.1074 22.8398 30.0648 23.0764 30.2489L24.219 31.1377C24.4557 31.3218 24.4983 31.6629 24.3142 31.8995C24.1301 32.1362 23.7891 32.1788 23.5524 31.9947L22.4098 31.1059C22.1732 30.9218 22.1306 30.5807 22.3146 30.3441ZM24.067 26.4996C24.067 26.1998 23.824 25.9567 23.5242 25.9567C23.2244 25.9567 22.9813 26.1998 22.9813 26.4996V27.9472C22.9813 28.247 23.2244 28.49 23.5242 28.49C23.824 28.49 24.067 28.247 24.067 27.9472V26.4996ZM20.267 20.89H21.7147C22.0145 20.89 22.2575 21.1331 22.2575 21.4329C22.2575 21.7327 22.0145 21.9758 21.7147 21.9758H20.267C19.9672 21.9758 19.7242 21.7327 19.7242 21.4329C19.7242 21.1331 19.9672 20.89 20.267 20.89ZM21.7366 23.5824C21.5246 23.3704 21.1809 23.3704 20.9689 23.5824C20.7569 23.7944 20.7569 24.1381 20.9689 24.3501L21.6927 25.0739C21.9047 25.2859 22.2484 25.2859 22.4604 25.0739C22.6724 24.8619 22.6724 24.5182 22.4604 24.3062L21.7366 23.5824Z" fill="#FF8000"/>
</svg>
