<svg width="24" height="24" viewBox="0 0 24 24" fill="none" xmlns="http://www.w3.org/2000/svg">
<path d="M10.3838 5.56641C10.4728 5.47811 10.618 5.47814 10.707 5.56641C10.7941 5.65291 10.7941 5.79143 10.707 5.87793L6.13086 10.4229L5.26953 11.2773H19.2725C19.4012 11.2773 19.5 11.3806 19.5 11.5C19.5 11.6194 19.4012 11.7227 19.2725 11.7227H5.26953L6.13086 12.5771L10.707 17.1221C10.7942 17.2086 10.7942 17.347 10.707 17.4336C10.618 17.5218 10.4728 17.5218 10.3838 17.4336L4.56543 11.6562C4.47832 11.5698 4.47832 11.4303 4.56543 11.3438L10.3838 5.56641Z" fill="#6D6B76" stroke="#444349"/>
</svg>
