<svg width="24" height="24" viewBox="0 0 24 24" fill="none" xmlns="http://www.w3.org/2000/svg">
<path d="M8.90583 4.00108C11.6934 1.33303 16.1939 1.33292 18.9814 4.00108C21.7965 6.69568 21.7964 11.0861 18.9814 13.7807L11.9163 20.5428C9.88656 22.4857 6.6152 22.4857 4.58549 20.5428C2.52848 18.5738 2.52848 15.3608 4.58549 13.3918L11.5491 6.72592C12.8209 5.5088 14.8633 5.50863 16.135 6.72592C17.4342 7.96948 17.4341 10.0066 16.135 11.2503L9.12111 17.9647C8.67781 18.389 7.97425 18.3733 7.54992 17.93C7.12579 17.4868 7.14089 16.784 7.58378 16.3597L14.5986 9.64521C14.9835 9.27661 14.9836 8.69952 14.5986 8.33097C14.1862 7.93628 13.498 7.93645 13.0855 8.33097L6.12196 14.9968C4.97901 16.0909 4.97901 17.8437 6.12196 18.9378C7.29236 20.0581 9.20941 20.0581 10.3798 18.9378L17.4449 12.1747C19.3454 10.3552 19.3455 7.42648 17.4449 5.60699C15.5166 3.76118 12.3706 3.76118 10.4423 5.60699L4.74956 11.0558C4.30628 11.4801 3.60271 11.4652 3.17837 11.022C2.75405 10.5787 2.76984 9.8751 3.21309 9.45076L8.90583 4.00108Z" fill="#4B178C"/>
</svg>
