<svg width="32" height="32" viewBox="0 0 32 32" fill="none" xmlns="http://www.w3.org/2000/svg">
<g opacity="0.5">
<path d="M21.6008 21.3934C21.8529 21.7958 22.1577 22.1662 22.5102 22.4926C23.0485 22.9909 23.6846 23.3794 24.3789 23.6371C25.0731 23.8947 25.8134 24.0164 26.5563 23.9965C27.3495 23.9756 28.0991 23.7917 28.775 23.4809V28.0004C28.7748 29.7675 27.3422 31.2004 25.575 31.2004H7.97502C7.24805 31.2004 6.57796 30.9572 6.04065 30.5488L6.37971 29.5785C6.43683 29.4151 6.56633 29.2866 6.73049 29.2316L9.96487 28.1512C10.4709 27.9818 10.4757 27.2679 9.9719 27.0918L6.75315 25.9684C6.58962 25.9113 6.46126 25.781 6.40627 25.6168L5.80784 23.8277C6.2043 23.9272 6.61775 23.9866 7.04377 23.998C7.78684 24.0179 8.5275 23.8964 9.2219 23.6387C9.91637 23.3809 10.5523 22.9919 11.0906 22.4934C11.443 22.167 11.7473 21.7965 11.9992 21.3941C12.2362 21.7725 12.5228 22.1241 12.8539 22.4394C13.9068 23.4419 15.3272 23.9988 16.8 23.9988C18.2729 23.9988 19.6933 23.4419 20.7461 22.4394C21.0774 22.124 21.3638 21.7719 21.6008 21.3934Z" fill="#9C5CFF"/>
<path d="M16.775 4.80039C17.6586 4.80039 18.3749 5.51684 18.375 6.40039V13.6004H23.575V10.4004C23.5751 9.73775 24.1124 9.20039 24.775 9.20039C25.4377 9.20039 25.9749 9.73775 25.975 10.4004V13.6004C25.975 13.6085 25.9736 13.6173 25.9735 13.6254C27.5526 13.8216 28.7749 15.1681 28.775 16.8004V21.6387C28.1437 22.0931 27.3674 22.3749 26.5141 22.3973H26.311C25.8398 22.3874 25.3739 22.2999 24.9352 22.1371C24.4339 21.9511 23.9795 21.6717 23.5977 21.3184C23.2159 20.9649 22.9142 20.544 22.7094 20.0824C22.5048 19.6211 22.4001 19.1266 22.4 18.6285C22.4 18.1867 22.0418 17.8285 21.6 17.8285C21.1584 17.8285 20.8003 18.1861 20.8 18.6277L20.7953 18.8129C20.7473 19.7335 20.3416 20.6149 19.6422 21.2809C18.8948 21.9923 17.873 22.3988 16.8 22.3988C15.7271 22.3988 14.7053 21.9923 13.9578 21.2809C13.2584 20.6149 12.8527 19.7335 12.8047 18.8129L12.8 18.6285C12.7998 18.1869 12.4417 17.8285 12 17.8285C11.5858 17.8286 11.2448 18.1431 11.2039 18.5465L11.2 18.6285C11.2002 19.1269 11.0953 19.6216 10.8906 20.0832C10.6859 20.5448 10.3848 20.9656 10.0031 21.3191C9.62127 21.6728 9.16634 21.9518 8.66487 22.1379C8.1634 22.324 7.62668 22.4132 7.08674 22.3988C6.21073 22.3754 5.41522 22.0795 4.77502 21.6035V16.8004C4.77514 15.1684 5.99702 13.8219 7.57581 13.6254C7.57563 13.6173 7.57504 13.6085 7.57502 13.6004V10.4004C7.57515 9.73775 8.11236 9.20039 8.77502 9.20039C9.43769 9.20039 9.9749 9.73775 9.97502 10.4004V13.6004H15.175V6.40039C15.1751 5.51684 15.8914 4.80039 16.775 4.80039Z" fill="#9C5CFF"/>
<path d="M28.5414 3.39023C28.5997 3.14401 28.9503 3.14401 29.0086 3.39023L29.3516 4.84492C29.3725 4.93319 29.4415 5.00206 29.5297 5.02304L30.9852 5.36679C31.2312 5.42523 31.2312 5.77561 30.9852 5.83398L29.5297 6.17695C29.4415 6.19787 29.3726 6.26694 29.3516 6.35507L29.0086 7.81054C28.9503 8.05664 28.5999 8.05654 28.5414 7.81054L28.1977 6.35507C28.1767 6.26691 28.1078 6.19784 28.0196 6.17695L26.5649 5.83398C26.3184 5.77577 26.3184 5.42496 26.5649 5.36679L28.0196 5.02304C28.1079 5.0021 28.1768 4.93322 28.1977 4.84492L28.5414 3.39023Z" fill="#9C5CFF"/>
</g>
<path d="M4.55623 23.7734C4.62347 23.5406 4.95388 23.5428 5.01795 23.7766L5.74295 26.4281C5.76504 26.5088 5.82815 26.5721 5.90858 26.5953L8.54998 27.3562C8.7826 27.4236 8.78037 27.7538 8.54686 27.818L5.8953 28.543C5.81456 28.565 5.75128 28.6282 5.72811 28.7086L4.96717 31.35C4.89991 31.5827 4.56964 31.5804 4.50545 31.3469L3.77967 28.6953C3.75758 28.6146 3.69524 28.5513 3.61483 28.5281L0.973422 27.7672C0.740525 27.7 0.742802 27.3695 0.976547 27.3055L3.62811 26.5797C3.70874 26.5575 3.77215 26.4952 3.7953 26.4148L4.55623 23.7734Z" fill="#9C5CFF"/>
<path d="M28.1086 12.8C28.7096 12.8001 29.2859 13.0433 29.7109 13.4766C30.1359 13.9098 30.3749 14.4974 30.375 15.1102V18.4797C30.375 18.8543 30.3303 19.2199 30.2492 19.5719C29.7906 21.1407 28.3243 22.3494 26.514 22.3969C25.9742 22.4113 25.4366 22.3228 24.9351 22.1367C24.4338 21.9507 23.9795 21.6714 23.5976 21.318C23.2158 20.9645 22.9142 20.5437 22.7094 20.082C22.5047 19.6206 22.4 19.1263 22.4 18.6281C22.4 18.1863 22.0418 17.8281 21.6 17.8281C21.1583 17.8281 20.8002 18.1857 20.8 18.6273L20.7953 18.8125C20.7473 19.7332 20.3417 20.6144 19.6422 21.2805C18.8947 21.992 17.873 22.3984 16.8 22.3984C15.7269 22.3984 14.7052 21.992 13.9578 21.2805C13.2583 20.6144 12.8526 19.7332 12.8047 18.8125L12.8 18.6281C12.7997 18.1865 12.4416 17.8281 12 17.8281C11.5858 17.8282 11.2448 18.1427 11.2039 18.5461L11.2 18.6281C11.2002 19.1266 11.0953 19.6211 10.8906 20.0828C10.6859 20.5445 10.3849 20.9652 10.0031 21.3187C9.62121 21.6724 9.16636 21.9513 8.66483 22.1375C8.16333 22.3236 7.62667 22.4129 7.0867 22.3984C4.96025 22.3415 3.30586 20.6843 3.20467 18.7227L3.19998 18.532V15.2C3.19998 15.1384 3.19206 15.0787 3.17889 15.0211C3.20094 14.4408 3.4347 13.8888 3.83905 13.4766C4.26406 13.0433 4.84038 12.8001 5.44139 12.8H28.1086Z" fill="#9C5CFF"/>
<path d="M8.35467 5.92578C8.60095 5.71689 8.94903 5.71688 9.1953 5.92578C9.88353 6.50961 11.175 7.83957 11.175 9.59999C11.175 10.2365 10.9219 10.8468 10.4719 11.2969C10.0218 11.7469 9.41148 12 8.77498 12C8.13849 12 7.52819 11.7469 7.07811 11.2969C6.62804 10.8468 6.375 10.2365 6.37498 9.59999C6.37498 7.83954 7.66645 6.5096 8.35467 5.92578Z" fill="#9C5CFF"/>
<path d="M24.3547 5.92578C24.6009 5.71689 24.949 5.71688 25.1953 5.92578C25.8835 6.50961 27.175 7.83957 27.175 9.59999C27.175 10.2365 26.9219 10.8468 26.4719 11.2969C26.0218 11.7469 25.4115 12 24.775 12C24.1385 12 23.5282 11.7469 23.0781 11.2969C22.628 10.8468 22.375 10.2365 22.375 9.59999C22.375 7.83954 23.6665 6.5096 24.3547 5.92578Z" fill="#9C5CFF"/>
<path d="M16.343 0.337494C16.5964 0.124126 16.9536 0.124114 17.207 0.337494C17.6363 0.699019 18.3112 1.33931 18.8875 2.19765L16.1101 3.23359C15.7658 3.36212 15.7628 3.84813 16.1055 3.98124L18.9773 5.09765C19.0835 5.13905 19.1672 5.22371 19.207 5.33046L19.7359 6.74921C19.5765 7.15087 19.3408 7.52076 19.0375 7.83359C18.4374 8.45223 17.6235 8.79998 16.775 8.79999C15.9265 8.79999 15.1126 8.45223 14.5125 7.83359C13.9124 7.21479 13.5751 6.3751 13.575 5.49999C13.575 2.96113 15.4692 1.07325 16.343 0.337494Z" fill="#9C5CFF"/>
<path d="M20.482 0.173432C20.5492 -0.0594519 20.8797 -0.0571953 20.9437 0.176557L21.5969 2.56249C21.6189 2.64319 21.6813 2.7065 21.7617 2.72968L24.139 3.41484C24.3717 3.48214 24.3694 3.81239 24.1359 3.87656L21.75 4.52968C21.6692 4.55176 21.6052 4.61409 21.582 4.69453L20.8976 7.07187C20.8304 7.30459 20.4992 7.30242 20.4351 7.06874L19.7828 4.68203C19.7606 4.60148 19.6982 4.53799 19.618 4.51484L17.2406 3.83046C17.0077 3.76326 17.0099 3.43195 17.2437 3.36796L19.6297 2.71562C19.7104 2.69353 19.7745 2.63118 19.7976 2.55078L20.482 0.173432Z" fill="#9C5CFF"/>
</svg>
