<svg width="32" height="32" viewBox="0 0 32 32" fill="none" xmlns="http://www.w3.org/2000/svg">
<path fill-rule="evenodd" clip-rule="evenodd" d="M22.96 14.3631C24.1423 14.4163 25.1145 15.2815 25.2294 16.4046L25.9616 23.5724C26.4232 28.0897 22.6617 31.9999 17.8543 32H14.1466C9.2947 32 5.51829 28.0208 6.05001 23.4682L6.87866 16.3741C7.01252 15.2281 8.03841 14.3605 9.25982 14.3604H22.8449L22.96 14.3631ZM9.2149 16.1718C8.99088 16.1916 8.80908 16.3575 8.78396 16.5724L8.16025 21.9108C8.92957 21.1696 10.0008 20.4687 11.3584 20.3631C14.3888 20.1273 16.066 21.4841 19.1803 21.258C20.4676 21.1644 22.0809 19.9878 23.5323 18.6409L23.3217 16.5786C23.2995 16.3612 23.1164 16.1921 22.8903 16.1718L22.8449 16.1696H9.25982L9.2149 16.1718Z" fill="#00C1FF"/>
<path d="M16.0655 0C17.1239 3.07269e-05 17.982 0.81002 17.982 1.80919V3.78887C17.982 4.55363 18.2763 5.29237 18.8097 5.86793C19.0046 6.0783 19.2523 6.23772 19.5214 6.35424C20.9907 6.99048 22.1686 8.01998 22.8491 9.27209H23.5407C24.0961 9.27211 24.6018 9.5743 24.8396 10.0481L25.6341 11.6312C26.0858 12.5314 25.3903 13.5688 24.3352 13.5689H7.73212C6.63526 13.5688 5.9426 12.4556 6.47673 11.5512L7.4116 9.9682C7.66543 9.53846 8.14623 9.27209 8.66746 9.27209H9.28275C9.96314 8.02026 11.1402 6.99092 12.6091 6.35468C12.8783 6.23805 13.126 6.07829 13.3212 5.86793C13.8547 5.29237 14.1489 4.55365 14.1489 3.78887V1.80919C14.1489 0.810047 15.0071 7.50593e-05 16.0655 0Z" fill="#00C1FF"/>
</svg>
