<svg width="40" height="48" viewBox="0 0 40 48" fill="none" xmlns="http://www.w3.org/2000/svg">
<path fill-rule="evenodd" clip-rule="evenodd" d="M17.1566 3.7334C26.8925 3.73354 40.6086 14.2264 39.979 25.7089C39.3493 37.1913 32.1091 37.3893 28.489 39.9629C24.8689 42.5366 23.6097 46.1001 14.9531 46.892C6.29627 47.6839 8.85871e-05 36.9935 0 25.115C0 12.0486 7.42066 3.7334 17.1566 3.7334ZM13.6931 25.7089C12.9978 25.7089 11.1112 26.5922 11.1111 27.4667C11.1111 28.3414 12.9977 31.0537 13.6931 31.0538C14.3885 31.0538 14.9522 30.3448 14.9522 29.4701C16.2222 27.7334 14.3884 25.7089 13.6931 25.7089ZM19.7777 18.1334C18.474 18.1334 15.3335 20.7602 15.3333 22.4001C15.3333 24.0401 18.2125 27.0941 19.5164 27.0941C20.8203 27.094 23.1111 24.8401 23.1111 23.2001C23.1108 21.5603 21.0814 18.1335 19.7777 18.1334Z" fill="#FCD755"/>
<path fill-rule="evenodd" clip-rule="evenodd" d="M17.1566 3.19995C26.8926 3.20009 40.6087 13.3042 39.9791 24.3614C39.3494 35.4185 32.1092 35.6091 28.4891 38.0874C24.869 40.5658 23.6098 43.9972 14.9531 44.7598C6.29628 45.5224 8.85873e-05 35.228 0 23.7895C0 11.2072 7.42067 3.19995 17.1566 3.19995ZM13.6931 26.4583C12.9978 26.4583 12.4341 27.1411 12.434 27.9833C12.434 28.8256 12.9977 29.5082 13.6931 29.5083C14.3885 29.5083 14.9522 28.8256 14.9522 27.9833C14.9521 27.1411 14.3885 26.4583 13.6931 26.4583ZM19.5165 19.976C18.2127 19.976 17.1556 21.2563 17.1553 22.8354C17.1553 24.4147 18.2125 25.6953 19.5165 25.6953C20.8203 25.6952 21.8771 24.4146 21.8771 22.8354C21.8769 21.2563 20.8202 19.9761 19.5165 19.976Z" fill="white"/>
<path d="M17.9434 15.0195C22.3767 15.0196 25.9707 19.3725 25.9707 24.7422C25.9707 30.1119 22.3767 34.4648 17.9434 34.4648C13.51 34.4648 9.91602 30.1119 9.91602 24.7422C9.91605 19.3725 13.51 15.0195 17.9434 15.0195ZM13.6943 26.458C12.9992 26.4583 12.4357 27.1415 12.4355 27.9834C12.4358 28.8253 12.9992 29.5076 13.6943 29.5078C14.3894 29.5075 14.9539 28.8253 14.9541 27.9834C14.9539 27.1415 14.3894 26.4583 13.6943 26.458ZM19.5176 19.9756C18.214 19.9758 17.1575 21.2561 17.1572 22.835C17.1572 24.4142 18.2138 25.6951 19.5176 25.6953C20.8213 25.695 21.8789 24.4141 21.8789 22.835C21.8786 21.2561 20.8211 19.9759 19.5176 19.9756Z" fill="#FBC224"/>
<path d="M13.6934 26.4587C14.3888 26.4587 14.9531 27.1418 14.9531 27.9841C14.9529 28.8262 14.3887 29.5085 13.6934 29.5085C12.9982 29.5083 12.4348 28.8261 12.4346 27.9841C12.4346 27.142 12.9981 26.459 13.6934 26.4587ZM19.5166 19.9763C20.8205 19.9763 21.8778 21.2565 21.8779 22.8357C21.8779 24.415 20.8205 25.696 19.5166 25.696C18.2128 25.6959 17.1562 24.4149 17.1562 22.8357C17.1564 21.2566 18.2129 19.9765 19.5166 19.9763Z" fill="#FEF4C7"/>
</svg>
