<svg width="16" height="16" viewBox="0 0 16 16" fill="none" xmlns="http://www.w3.org/2000/svg">
<path d="M5.16665 1.66675C5.16665 1.39061 4.94279 1.16675 4.66665 1.16675C4.3905 1.16675 4.16665 1.39061 4.16665 1.66675V2.71959C3.20709 2.79642 2.57716 2.985 2.11436 3.4478C1.65156 3.9106 1.46299 4.54053 1.38615 5.50008H14.6138C14.537 4.54053 14.3484 3.9106 13.8856 3.4478C13.4228 2.985 12.7929 2.79642 11.8333 2.71959V1.66675C11.8333 1.39061 11.6095 1.16675 11.3333 1.16675C11.0572 1.16675 10.8333 1.39061 10.8333 1.66675V2.67535C10.3898 2.66675 9.89267 2.66675 9.33331 2.66675H6.66665C6.10729 2.66675 5.61016 2.66675 5.16665 2.67535V1.66675Z" fill="#00C1FF"/>
<path fill-rule="evenodd" clip-rule="evenodd" d="M14.6666 8.00008C14.6666 7.44073 14.6666 6.94359 14.658 6.50008H1.34191C1.33331 6.94359 1.33331 7.44073 1.33331 8.00008V9.33342C1.33331 11.8476 1.33331 13.1047 2.11436 13.8857C2.89541 14.6667 4.15249 14.6667 6.66665 14.6667H9.33331C11.8475 14.6667 13.1045 14.6667 13.8856 13.8857C14.6666 13.1047 14.6666 11.8476 14.6666 9.33342V8.00008ZM9.33331 8.16675C8.68898 8.16675 8.16665 8.68908 8.16665 9.33342V10.6667C8.16665 11.3111 8.68898 11.8334 9.33331 11.8334C9.97765 11.8334 10.5 11.3111 10.5 10.6667V9.33342C10.5 8.68908 9.97765 8.16675 9.33331 8.16675ZM9.33331 9.16675C9.24127 9.16675 9.16665 9.24137 9.16665 9.33342V10.6667C9.16665 10.7588 9.24127 10.8334 9.33331 10.8334C9.42536 10.8334 9.49998 10.7588 9.49998 10.6667V9.33342C9.49998 9.24137 9.42536 9.16675 9.33331 9.16675ZM7.19132 8.20481C7.37816 8.2822 7.49998 8.46452 7.49998 8.66675V11.3334C7.49998 11.6096 7.27612 11.8334 6.99998 11.8334C6.72384 11.8334 6.49998 11.6096 6.49998 11.3334V9.87386L6.35353 10.0203C6.15827 10.2156 5.84169 10.2156 5.64643 10.0203C5.45116 9.82504 5.45116 9.50846 5.64643 9.3132L6.64643 8.3132C6.78943 8.1702 7.00448 8.12742 7.19132 8.20481Z" fill="#00C1FF"/>
</svg>
