<svg width="24" height="24" viewBox="0 0 24 24" fill="none" xmlns="http://www.w3.org/2000/svg">
<path d="M2.75 12C2.75 6.89137 6.89137 2.75 12 2.75C17.1086 2.75 21.25 6.89137 21.25 12C21.25 17.1086 17.1086 21.25 12 21.25C10.5189 21.25 9.12113 20.9024 7.88184 20.2852C7.38445 20.0374 6.78925 19.9423 6.20508 20.0986L3.97949 20.6943C3.57073 20.8036 3.19636 20.4293 3.30566 20.0205L3.90137 17.7949C4.05767 17.2108 3.96256 16.6156 3.71484 16.1182C3.09757 14.8789 2.75 13.4811 2.75 12ZM1.25 12C1.25 13.7183 1.65365 15.3447 2.37207 16.7871C2.4792 17.0023 2.50161 17.2224 2.45215 17.4072L1.85742 19.6328C1.4497 21.1566 2.84335 22.5503 4.36719 22.1426L6.59277 21.5479C6.77761 21.4984 6.99771 21.5208 7.21289 21.6279C8.65527 22.3463 10.2817 22.75 12 22.75C17.9371 22.75 22.75 17.9371 22.75 12C22.75 6.06294 17.9371 1.25 12 1.25C6.06294 1.25 1.25 6.06294 1.25 12Z" fill="#6D6B76"/>
<path d="M16 9.75C16.4142 9.75 16.75 10.0858 16.75 10.5C16.75 10.9142 16.4142 11.25 16 11.25H8C7.58579 11.25 7.25 10.9142 7.25 10.5C7.25 10.0858 7.58579 9.75 8 9.75H16Z" fill="#6D6B76"/>
<path d="M13.5 13.25C13.9142 13.25 14.25 13.5858 14.25 14C14.25 14.4142 13.9142 14.75 13.5 14.75H8C7.58579 14.75 7.25 14.4142 7.25 14C7.25 13.5858 7.58579 13.25 8 13.25H13.5Z" fill="#6D6B76"/>
</svg>
