<svg width="16" height="16" viewBox="0 0 16 16" fill="none" xmlns="http://www.w3.org/2000/svg">
<path d="M2.94228 11.9057C3.18078 11.7666 3.48676 11.8476 3.62587 12.086C4.17711 13.0313 5.02021 13.7459 6.05947 14.2097C6.31163 14.3223 6.42462 14.6183 6.31207 14.8705C6.19948 15.1225 5.904 15.2356 5.65191 15.1231C4.44433 14.5842 3.43122 13.7364 2.76259 12.5899C2.62348 12.3514 2.70373 12.0448 2.94228 11.9057Z" fill="#00C1FF"/>
<path d="M6.47874 2.05411C6.90119 1.81267 7.31715 1.96108 7.45986 2.2058L9.74045 6.11596C9.90746 6.40235 9.83191 6.76352 9.6122 7.01179C8.82629 7.89985 8.58054 9.15649 9.18902 10.1999C9.32811 10.4385 9.63408 10.5187 9.87262 10.3796C10.1112 10.2405 10.1921 9.93458 10.053 9.69603C9.60283 8.92402 9.91792 7.78761 10.9462 7.19994C11.0619 7.13376 11.1467 7.02405 11.1812 6.89525C11.2157 6.76652 11.1969 6.62953 11.1298 6.51439L10.0074 4.58926C9.86717 4.34882 9.94138 3.92488 10.3622 3.68432C10.7846 3.44288 11.2006 3.59129 11.3433 3.83601L13.0269 6.72338C14.097 8.55845 13.2998 11.1191 11.0569 12.4011C8.81232 13.6839 6.16539 13.0873 5.09267 11.2481L2.56663 6.91674C2.4265 6.67629 2.50072 6.25232 2.92144 6.01179C3.34389 5.77035 3.75986 5.91876 3.90256 6.16348L5.02496 8.08861C5.1641 8.32705 5.47071 8.40738 5.7092 8.2683C5.94753 8.12914 6.0279 7.82316 5.88889 7.58471L3.3635 3.25333C3.2233 3.01286 3.29743 2.58892 3.71832 2.34838C4.1406 2.10719 4.55603 2.25549 4.69879 2.50007L6.94423 6.34968C7.08333 6.58822 7.38928 6.66911 7.62782 6.53002C7.86629 6.39096 7.94708 6.08494 7.80816 5.84642L6.12392 2.95905C5.98372 2.71864 6.05803 2.29468 6.47874 2.05411Z" fill="#00C1FF"/>
<path d="M9.74631 0.975982C11.0383 0.60836 12.3826 0.959657 13.3179 1.91478C13.5111 2.11205 13.508 2.42861 13.3108 2.62181C13.1135 2.81498 12.7969 2.81186 12.6037 2.61465C11.9278 1.92434 10.9634 1.6697 10.0198 1.93822C9.75424 2.0136 9.47811 1.85932 9.40256 1.59382C9.32707 1.32826 9.48076 1.05154 9.74631 0.975982Z" fill="#00C1FF"/>
</svg>
