<svg width="24" height="24" viewBox="0 0 24 24" fill="none" xmlns="http://www.w3.org/2000/svg">
<path d="M6 0.5H18C21.0376 0.5 23.5 2.96243 23.5 6V18C23.5 21.0376 21.0376 23.5 18 23.5H6C2.96243 23.5 0.5 21.0376 0.5 18V6C0.5 2.96243 2.96243 0.5 6 0.5Z" fill="#9C5CFF" stroke="#9C5CFF"/>
<path d="M15.3141 8.25846C15.7775 7.80284 16.5287 7.80284 16.9921 8.25846C17.4555 8.71408 17.4555 9.4526 16.9921 9.90822L11.0589 15.7416C10.8364 15.9604 10.5347 16.0834 10.22 16.0834C9.90524 16.0834 9.60351 15.9604 9.38097 15.7416L7.00771 13.4083C6.5443 12.9526 6.5443 12.2141 7.00771 11.7585C7.47112 11.3029 8.22227 11.3029 8.68568 11.7585L10.22 13.267L15.3141 8.25846Z" fill="#FAFAFA"/>
</svg>
