<svg width="16" height="16" viewBox="0 0 16 16" fill="none" xmlns="http://www.w3.org/2000/svg">
<path fill-rule="evenodd" clip-rule="evenodd" d="M6.55544 2.72016C6.40933 2.84468 6.33626 2.90695 6.25824 2.95924C6.07937 3.07913 5.8785 3.16233 5.66726 3.20403C5.57511 3.22223 5.47942 3.22986 5.28805 3.24513C4.80722 3.28351 4.5668 3.30269 4.36622 3.37354C3.90231 3.5374 3.5374 3.90231 3.37354 4.36622C3.30269 4.5668 3.28351 4.80722 3.24513 5.28805C3.22986 5.47942 3.22223 5.57511 3.20403 5.66726C3.16233 5.8785 3.07913 6.07937 2.95924 6.25824C2.90695 6.33626 2.84468 6.40932 2.72016 6.55544C2.4073 6.92257 2.25086 7.10614 2.15913 7.29806C1.94696 7.74197 1.94696 8.25803 2.15913 8.70194C2.25086 8.89386 2.4073 9.07743 2.72016 9.44456C2.84467 9.59066 2.90695 9.66374 2.95924 9.74176C3.07913 9.92063 3.16233 10.1215 3.20403 10.3327C3.22223 10.4249 3.22986 10.5206 3.24513 10.712C3.28351 11.1928 3.30269 11.4332 3.37354 11.6338C3.5374 12.0977 3.90231 12.4626 4.36622 12.6265C4.5668 12.6973 4.80722 12.7165 5.28805 12.7549C5.47942 12.7701 5.57511 12.7778 5.66726 12.796C5.8785 12.8377 6.07937 12.9209 6.25824 13.0408C6.33626 13.0931 6.40932 13.1553 6.55544 13.2798C6.92257 13.5927 7.10614 13.7491 7.29806 13.8409C7.74197 14.053 8.25803 14.053 8.70194 13.8409C8.89386 13.7491 9.07743 13.5927 9.44456 13.2798C9.59068 13.1553 9.66374 13.0931 9.74176 13.0408C9.92063 12.9209 10.1215 12.8377 10.3327 12.796C10.4249 12.7778 10.5206 12.7701 10.712 12.7549C11.1928 12.7165 11.4332 12.6973 11.6338 12.6265C12.0977 12.4626 12.4626 12.0977 12.6265 11.6338C12.6973 11.4332 12.7165 11.1928 12.7549 10.712C12.7701 10.5206 12.7778 10.4249 12.796 10.3327C12.8377 10.1215 12.9209 9.92063 13.0408 9.74176C13.0931 9.66374 13.1553 9.59068 13.2798 9.44456C13.5927 9.07743 13.7491 8.89386 13.8409 8.70194C14.053 8.25803 14.053 7.74197 13.8409 7.29806C13.7491 7.10614 13.5927 6.92257 13.2798 6.55544C13.1553 6.40932 13.0931 6.33626 13.0408 6.25824C12.9209 6.07937 12.8377 5.8785 12.796 5.66726C12.7778 5.57511 12.7701 5.47942 12.7549 5.28805C12.7165 4.80722 12.6973 4.5668 12.6265 4.36622C12.4626 3.90231 12.0977 3.5374 11.6338 3.37354C11.4332 3.30269 11.1928 3.28351 10.712 3.24513C10.5206 3.22986 10.4249 3.22223 10.3327 3.20403C10.1215 3.16233 9.92063 3.07913 9.74176 2.95924C9.66374 2.90695 9.59068 2.84468 9.44456 2.72016C9.07743 2.4073 8.89386 2.25086 8.70194 2.15913C8.25803 1.94696 7.74197 1.94696 7.29806 2.15913C7.10614 2.25086 6.92257 2.4073 6.55544 2.72016ZM10.6241 6.71788C10.8148 6.52718 10.8148 6.218 10.6241 6.0273C10.4334 5.8366 10.1242 5.8366 9.93351 6.0273L7.02336 8.93745L6.06648 7.98056C5.87578 7.78986 5.56659 7.78986 5.37589 7.98056C5.18519 8.17126 5.18519 8.48045 5.37589 8.67115L6.67807 9.97332C6.86877 10.164 7.17795 10.164 7.36865 9.97332L10.6241 6.71788Z" fill="#0EAB52"/>
</svg>
