<svg width="32" height="32" viewBox="0 0 32 32" fill="none" xmlns="http://www.w3.org/2000/svg">
<path d="M13.12 15.9772C13.12 14.3894 14.4094 13.1023 16 13.1023C17.5906 13.1023 18.88 14.3894 18.88 15.9772C18.88 16.7784 18.5517 17.5031 18.0219 18.0244C17.9561 18.069 17.8948 18.1225 17.8398 18.1848L17.8266 18.2C17.3296 18.6075 16.6934 18.8521 16 18.8521C14.4094 18.8521 13.12 17.5649 13.12 15.9772Z" fill="#F93B93"/>
<path fill-rule="evenodd" clip-rule="evenodd" d="M25.5727 19.5484C26.4782 18.8799 27.6302 18.8599 28.322 19.4485C28.6334 18.3447 28.8 17.1804 28.8 15.9772C28.8 13.4497 28.0648 11.0936 26.7963 9.11031L25.6383 10.2662C25.2634 10.6404 24.6556 10.6404 24.2807 10.2662C23.9058 9.89195 23.9058 9.28519 24.2807 8.91096L25.5607 7.63323C25.5847 7.60925 25.6097 7.58681 25.6355 7.5659C23.2893 4.88994 19.8423 3.19995 16 3.19995C13.468 3.19995 11.1077 3.93384 9.1209 5.20015L10.2783 6.35551C10.6532 6.72974 10.6532 7.3365 10.2783 7.71074C9.90341 8.08498 9.29558 8.08498 8.92067 7.71074L7.64067 6.43301C7.61682 6.40921 7.59449 6.38446 7.57368 6.3589C4.89299 8.70095 3.20001 12.1417 3.20001 15.9772C3.20001 16.3405 3.21521 16.7003 3.245 17.056C3.52193 17.2521 3.86453 17.4811 4.24842 17.7093C5.29634 18.3324 6.49213 18.8521 7.4647 18.8521C8.12546 18.8521 9.05586 18.6133 10.0078 18.243C10.546 18.0337 11.052 17.7977 11.4729 17.5736C11.2962 17.0743 11.2 16.5369 11.2 15.9772C11.2 13.3309 13.349 11.1857 16 11.1857C18.651 11.1857 20.8 13.3309 20.8 15.9772C20.8 16.9702 20.4974 17.8926 19.9792 18.6576C20.1254 18.7541 20.2852 18.8584 20.4556 18.9696L20.6721 19.1109C21.2829 19.51 22.0323 20.0047 22.4388 20.4104C22.4556 20.4272 22.4716 20.4444 22.4869 20.462C23.095 20.537 23.6399 20.8205 23.9994 21.3058L24.3518 21.7816C24.3917 21.8353 24.47 21.8411 24.5174 21.7939C24.5424 21.7689 24.5536 21.7334 24.5489 21.6984C24.448 20.9502 24.8214 20.103 25.5727 19.5484ZM21.6955 6.26649C22.1196 6.58404 22.2056 7.1847 21.8875 7.6081L19.9675 10.1635C19.6494 10.5869 19.0476 10.6728 18.6235 10.3552C18.1993 10.0377 18.1134 9.437 18.4315 9.0136L20.3515 6.45815C20.6696 6.03475 21.2713 5.94894 21.6955 6.26649ZM14.0407 5.07778C13.6658 5.45202 13.6658 6.05878 14.0407 6.43301L15.3207 7.71074C15.6956 8.08498 16.3034 8.08498 16.6783 7.71074C17.0532 7.3365 17.0532 6.72974 16.6783 6.35551L15.3983 5.07778C15.0234 4.70355 14.4156 4.70355 14.0407 5.07778ZM11.4037 10.3043C11.5409 10.8155 12.0673 11.1189 12.5794 10.9819L14.328 10.5142C14.8401 10.3772 15.144 9.85176 15.0068 9.34055C14.8696 8.82933 14.3432 8.52595 13.831 8.66293L12.0825 9.13061C11.5704 9.26759 11.2665 9.79306 11.4037 10.3043ZM8.18747 9.81044C7.70481 10.0294 7.49139 10.5976 7.71079 11.0794L8.45988 12.7244C8.67928 13.2062 9.24842 13.4192 9.73109 13.2002C10.2138 12.9812 10.4272 12.4131 10.2078 11.9313L9.45868 10.2863C9.23928 9.80446 8.67014 9.59142 8.18747 9.81044ZM22.0812 14.8763C22.6108 14.8515 23.02 14.4028 22.9951 13.8741L22.9101 12.0691C22.8852 11.5405 22.4357 11.132 21.9061 11.1569C21.3765 11.1817 20.9673 11.6304 20.9922 12.1591L21.0772 13.9641C21.1021 14.4928 21.5516 14.9012 22.0812 14.8763ZM24.2386 16.052C24.589 16.4492 25.1956 16.4876 25.5935 16.1378L27.7414 14.2495C28.1393 13.8997 28.1778 13.2942 27.8274 12.897C27.477 12.4998 26.8704 12.4614 26.4725 12.8112L24.3246 14.6995C23.9267 15.0493 23.8882 15.6548 24.2386 16.052ZM9.52647 14.565C9.95432 14.8776 10.0473 15.4772 9.73418 15.9043L8.66508 17.3625C8.35195 17.7895 7.75127 17.8824 7.32342 17.5698C6.89557 17.2572 6.80258 16.6576 7.11571 16.2305L8.18481 14.7724C8.49794 14.3453 9.09862 14.2524 9.52647 14.565ZM5.19956 11.1077C4.67018 11.1372 4.26495 11.5894 4.29444 12.1179L4.39513 13.922C4.42462 14.4505 4.87767 14.855 5.40704 14.8255C5.93641 14.7961 6.34165 14.3439 6.31216 13.8154L6.21147 12.0113C6.18198 11.4828 5.72893 11.0783 5.19956 11.1077Z" fill="#F93B93"/>
<path opacity="0.5" d="M16.3179 28.2292C16.0724 27.4052 16.347 26.3741 17.1679 25.768C17.7982 25.3028 18.5478 25.1516 19.1786 25.3012C19.2614 25.3208 19.3499 25.3002 19.4101 25.2401C19.4901 25.1603 19.4995 25.034 19.4323 24.9432L19.3121 24.7811C18.5294 23.7245 18.9199 22.1092 20.1823 21.1592C19.9986 21.0344 19.7959 20.9003 19.5801 20.7592L19.3518 20.6105C19.0782 20.4325 18.7912 20.2457 18.5323 20.0679C17.7887 20.54 16.9062 20.8135 15.9597 20.8135C14.5605 20.8135 13.3012 20.2159 12.4238 19.2625C11.9028 19.5449 11.2932 19.8291 10.6647 20.0736C9.63962 20.4724 8.44365 20.8135 7.42438 20.8135C6.10477 20.8135 4.74364 20.2431 3.68738 19.6647C5.25838 24.9467 10.1583 28.7993 15.9597 28.7993C16.2328 28.7993 16.3957 28.4904 16.3179 28.2292Z" fill="#F93B93"/>
<path d="M21.6 23.2043L25.599 25.5038L29.5956 23.2L27.2961 27.199L29.6 31.1956L25.6009 28.8961L21.6044 31.2L23.9039 27.2009L21.6 23.2043Z" fill="#F93B93"/>
<path opacity="0.5" d="M26.4 2.40166L27.9997 3.32145L29.5983 2.3999L28.6785 3.99953L29.6 5.59815L28.0004 4.67835L26.4018 5.5999L27.3216 4.00027L26.4 2.40166Z" fill="#F93B93"/>
<path opacity="0.5" d="M0.799988 0.802684L3.19943 2.18237L5.59735 0.800049L4.21766 3.19949L5.59999 5.59741L3.20055 4.21772L0.802623 5.60005L2.18231 3.20061L0.799988 0.802684Z" fill="#F93B93"/>
</svg>
