<svg width="20" height="20" viewBox="0 0 20 20" fill="none" xmlns="http://www.w3.org/2000/svg">
<path d="M17.6615 2.3385C18.5574 3.23432 18.5574 4.68675 17.6615 5.58258L17.2486 5.99553C17.1283 5.9695 16.9769 5.92986 16.8043 5.86999C16.3424 5.70972 15.7353 5.40685 15.1642 4.8358C14.5932 4.26474 14.2903 3.65765 14.1301 3.19571C14.0702 3.02313 14.0305 2.8717 14.0045 2.75145L14.4175 2.3385C15.3133 1.44267 16.7657 1.44267 17.6615 2.3385Z" fill="#727D84"/>
<path d="M12.1501 11.094C11.8135 11.4307 11.6451 11.599 11.4595 11.7438C11.2406 11.9145 11.0037 12.061 10.753 12.1804C10.5405 12.2817 10.3146 12.357 9.86294 12.5075L7.48099 13.3015C7.2587 13.3756 7.01363 13.3178 6.84795 13.1521C6.68227 12.9864 6.62441 12.7413 6.69851 12.5191L7.49249 10.1371C7.64306 9.6854 7.71834 9.45955 7.81961 9.24706C7.93908 8.99639 8.08549 8.75948 8.25627 8.54053C8.40105 8.35492 8.56938 8.18658 8.90606 7.8499L13.0028 3.75317C13.2226 4.33166 13.6078 5.04715 14.2804 5.71968C14.9529 6.39221 15.6684 6.77743 16.2469 6.99725L12.1501 11.094Z" fill="#727D84"/>
<path d="M17.113 17.1129C18.3334 15.8925 18.3334 13.9283 18.3334 9.99996C18.3334 8.70975 18.3334 7.63141 18.2902 6.72171L12.9884 12.0235C12.6957 12.3164 12.4758 12.5364 12.2283 12.7294C11.9377 12.956 11.6234 13.1503 11.2908 13.3088C11.0074 13.4439 10.7123 13.5422 10.3195 13.673L7.87628 14.4874C7.20481 14.7112 6.46454 14.5364 5.96407 14.036C5.46359 13.5355 5.28884 12.7952 5.51266 12.1238L6.32704 9.68057C6.45788 9.28775 6.55618 8.99261 6.69121 8.70928C6.84973 8.37666 7.04402 8.06229 7.27063 7.77175C7.46366 7.52427 7.68368 7.30436 7.97652 7.01166L13.2783 1.70986C12.3686 1.66663 11.2903 1.66663 10.0001 1.66663C6.07171 1.66663 4.10752 1.66663 2.88714 2.88701C1.66675 4.1074 1.66675 6.07159 1.66675 9.99996C1.66675 13.9283 1.66675 15.8925 2.88714 17.1129C4.10753 18.3333 6.07171 18.3333 10.0001 18.3333C13.9285 18.3333 15.8926 18.3333 17.113 17.1129Z" fill="#727D84"/>
</svg>
