<svg width="24" height="24" viewBox="0 0 24 24" fill="none" xmlns="http://www.w3.org/2000/svg">
<path fill-rule="evenodd" clip-rule="evenodd" d="M17 2C19.7614 2 22 4.23858 22 7C22 9.76142 19.7614 12 17 12C16.9079 12 16.8165 11.9961 16.7256 11.9912C16.6919 11.9894 16.6585 11.9869 16.625 11.9844C16.5645 11.9799 16.5042 11.9754 16.4443 11.9688C16.4084 11.9648 16.3726 11.9598 16.3369 11.9551C16.2803 11.9476 16.224 11.9391 16.168 11.9297C16.1356 11.9243 16.1034 11.9182 16.0713 11.9121C16.0116 11.9009 15.9525 11.8883 15.8936 11.875C15.8639 11.8683 15.8342 11.8617 15.8047 11.8545C15.74 11.8386 15.676 11.8211 15.6123 11.8027C15.5899 11.7963 15.5672 11.7909 15.5449 11.7842C15.4666 11.7604 15.3892 11.7345 15.3125 11.707C15.3041 11.704 15.2955 11.7013 15.2871 11.6982C15.2017 11.6671 15.1173 11.6342 15.0342 11.5986C15.0184 11.5919 15.003 11.5841 14.9873 11.5771C14.9268 11.5505 14.8668 11.5231 14.8076 11.4941C14.7964 11.4887 14.7846 11.4841 14.7734 11.4785C14.5953 11.3898 14.3914 11.3597 14.1992 11.4111L13.0869 11.709C12.6037 11.8383 12.1617 11.3963 12.291 10.9131L12.5889 9.80078C12.6403 9.60857 12.6102 9.40468 12.5215 9.22656C12.5157 9.21502 12.5105 9.203 12.5049 9.19141C12.3896 8.95543 12.2922 8.70913 12.2148 8.4541C12.2039 8.41795 12.1947 8.38122 12.1846 8.34473C12.1707 8.29484 12.1569 8.24484 12.1445 8.19434C12.1373 8.16484 12.1307 8.13517 12.124 8.10547C12.1107 8.04657 12.0981 7.9874 12.0869 7.92773C12.0809 7.89559 12.0748 7.86342 12.0693 7.83105C12.06 7.77504 12.0514 7.71874 12.0439 7.66211C12.0392 7.62639 12.0342 7.59064 12.0303 7.55469C12.0237 7.4948 12.0191 7.43452 12.0146 7.37402C12.0122 7.34057 12.0096 7.30707 12.0078 7.27344C12.0029 7.1829 12 7.09175 12 7C12 4.23858 14.2386 2 17 2ZM17 8.5C15.4549 8.5 14.7047 8.91556 14.3408 9.58203C14.1656 9.90345 14.2949 10.2985 14.5967 10.5059C15.2802 10.9753 16.1081 11.25 17 11.25C17.8919 11.25 18.7198 10.9754 19.4033 10.5059C19.7051 10.2986 19.8344 9.90345 19.6592 9.58203C19.2953 8.91555 18.5451 8.50001 17 8.5ZM17 4C16.1716 4 15.5 4.67157 15.5 5.5C15.5 6.32843 16.1716 7 17 7C17.8284 7 18.5 6.32843 18.5 5.5C18.5 4.67157 17.8284 4 17 4Z" fill="#6D6B76"/>
<path d="M8.03759 7.31617L8.6866 8.4791C9.2723 9.52858 9.03718 10.9053 8.11471 11.8278C8.11471 11.8278 6.99578 12.9467 9.02451 14.9755C11.0532 17.0042 12.1722 15.8853 12.1722 15.8853C13.0947 14.9628 14.4714 14.7277 15.5209 15.3134L16.6838 15.9624C18.2686 16.8468 18.4557 19.0692 17.0628 20.4622C16.2258 21.2992 15.2004 21.9505 14.0669 21.9934C12.1588 22.0658 8.91828 21.5829 5.6677 18.3323C2.41713 15.0817 1.93421 11.8412 2.00655 9.93309C2.04952 8.7996 2.7008 7.77423 3.53781 6.93723C4.93076 5.54428 7.15317 5.73144 8.03759 7.31617Z" fill="#6D6B76"/>
</svg>
