<svg width="16" height="16" viewBox="0 0 16 16" fill="none" xmlns="http://www.w3.org/2000/svg">
<path d="M7.49952 1.33325C4.68731 1.33599 3.23226 1.3863 2.30916 2.3094C1.38606 3.2325 1.33575 4.68755 1.33301 7.49976H4.60869C4.37471 7.2075 4.19988 6.86276 4.10455 6.48144C3.74571 5.04609 5.04585 3.74596 6.48119 4.10479C6.86252 4.20012 7.20725 4.37495 7.49952 4.60893V1.33325Z" fill="#7B2AF3"/>
<path d="M1.33301 8.49976C1.33575 11.312 1.38606 12.767 2.30916 13.6901C3.23226 14.6132 4.68731 14.6635 7.49952 14.6663V9.41553C6.97976 10.4537 5.9062 11.1664 4.66618 11.1664C4.39004 11.1664 4.16618 10.9426 4.16618 10.6664C4.16618 10.3903 4.39004 10.1664 4.66618 10.1664C5.69071 10.1664 6.54915 9.45533 6.77487 8.49976H1.33301Z" fill="#7B2AF3"/>
<path d="M8.49952 14.6663C11.3117 14.6635 12.7668 14.6132 13.6899 13.6901C14.613 12.767 14.6633 11.312 14.666 8.49976H9.22416C9.44988 9.45533 10.3083 10.1664 11.3329 10.1664C11.609 10.1664 11.8329 10.3903 11.8329 10.6664C11.8329 10.9426 11.609 11.1664 11.3329 11.1664C10.0928 11.1664 9.01928 10.4537 8.49952 9.41553V14.6663Z" fill="#7B2AF3"/>
<path d="M14.666 7.49976C14.6633 4.68755 14.613 3.2325 13.6899 2.3094C12.7668 1.3863 11.3117 1.33599 8.49952 1.33325V4.60893C8.79178 4.37495 9.13652 4.20012 9.51784 4.10479C10.9532 3.74596 12.2533 5.04609 11.8945 6.48144C11.7992 6.86276 11.6243 7.2075 11.3903 7.49976H14.666Z" fill="#7B2AF3"/>
<path d="M6.23866 5.07493C6.97967 5.26019 7.49952 5.92599 7.49952 6.68981V7.49976H6.68957C5.92575 7.49976 5.25994 6.97992 5.07469 6.2389C4.89895 5.53594 5.53569 4.89919 6.23866 5.07493Z" fill="#7B2AF3"/>
<path d="M8.49952 6.68981V7.49976H9.30946C10.0733 7.49976 10.7391 6.97992 10.9243 6.2389C11.1001 5.53594 10.4633 4.89919 9.76038 5.07493C9.01936 5.26019 8.49952 5.92599 8.49952 6.68981Z" fill="#7B2AF3"/>
</svg>
