<svg width="24" height="24" viewBox="0 0 24 24" fill="none" xmlns="http://www.w3.org/2000/svg">
<path d="M21.25 12.2041C21.25 11.046 21.2493 10.2286 21.1885 9.58105C21.1291 8.94867 21.0165 8.53566 20.8232 8.18262C20.6307 7.83086 20.3489 7.52139 19.8594 7.14648C19.3562 6.76114 18.6815 6.34142 17.7207 5.74512L15.7207 4.50391C14.7051 3.87358 13.9906 3.43194 13.3936 3.1416C12.8119 2.85873 12.3998 2.75 12 2.75C11.6002 2.75 11.1881 2.85873 10.6064 3.1416C10.0094 3.43194 9.29492 3.87358 8.2793 4.50391L6.2793 5.74512C5.31849 6.34142 4.6438 6.76114 4.14063 7.14648C3.6511 7.52139 3.36931 7.83086 3.17676 8.18262C2.98351 8.53566 2.87095 8.94867 2.81152 9.58105C2.75068 10.2286 2.75 11.046 2.75 12.2041V13.7246C2.75 15.6954 2.75196 17.1009 2.89063 18.168C3.02684 19.216 3.28319 19.8241 3.71094 20.2666C4.13523 20.7055 4.71274 20.9662 5.71387 21.1055C6.73948 21.2481 8.09247 21.25 10 21.25H14C15.9075 21.25 17.2605 21.2481 18.2861 21.1055C19.2873 20.9662 19.8648 20.7055 20.2891 20.2666C20.7168 19.8241 20.9732 19.216 21.1094 18.168C21.248 17.1009 21.25 15.6954 21.25 13.7246V12.2041ZM22.75 13.7246C22.75 15.6544 22.7518 17.1751 22.5977 18.3613C22.441 19.5667 22.111 20.5402 21.3672 21.3096C20.62 22.0823 19.6692 22.4281 18.4922 22.5918C17.3393 22.7521 15.8636 22.75 14 22.75H10C8.13643 22.75 6.66068 22.7521 5.50781 22.5918C4.33081 22.4281 3.38 22.0823 2.63281 21.3096C1.88902 20.5402 1.55901 19.5667 1.40234 18.3613C1.24819 17.1751 1.25 15.6544 1.25 13.7246V12.2041C1.25 11.0738 1.24941 10.1742 1.31836 9.44043C1.38874 8.69167 1.53549 8.05825 1.86133 7.46289C2.1879 6.86627 2.63994 6.40685 3.22852 5.95605C3.80366 5.51559 4.55208 5.05174 5.48828 4.4707L7.48828 3.22949C8.47778 2.61538 9.26762 2.12394 9.9502 1.79199C10.6482 1.45257 11.2919 1.25 12 1.25C12.7081 1.25 13.3518 1.45257 14.0498 1.79199C14.7324 2.12394 15.5222 2.61538 16.5117 3.22949L18.5117 4.4707C19.4479 5.05174 20.1963 5.51559 20.7715 5.95605C21.3601 6.40685 21.8121 6.86627 22.1387 7.46289C22.4645 8.05825 22.6113 8.69167 22.6816 9.44043C22.7506 10.1742 22.75 11.0738 22.75 12.2041V13.7246Z" fill="#6D6B76"/>
<path d="M14.5537 15.3975C14.8865 15.151 15.3559 15.221 15.6025 15.5537C15.849 15.8865 15.779 16.3559 15.4463 16.6025C14.4739 17.3232 13.2849 17.75 12 17.75C10.7151 17.75 9.52608 17.3232 8.55371 16.6025C8.22102 16.3559 8.15099 15.8865 8.39746 15.5537C8.64407 15.221 9.11354 15.151 9.44629 15.3975C10.1746 15.9373 11.0541 16.25 12 16.25C12.9459 16.25 13.8254 15.9373 14.5537 15.3975Z" fill="#6D6B76"/>
</svg>
