<svg width="48" height="48" viewBox="0 0 48 48" fill="none" xmlns="http://www.w3.org/2000/svg">
<rect width="48" height="48" rx="12" fill="#EFFAFF"/>
<path d="M32.1006 24.6526L25.1699 31.1028L21.376 27.3088C20.9908 26.9237 20.3656 26.9237 19.9805 27.3088C19.596 27.694 19.5957 28.3184 19.9805 28.7034L23.7754 32.4973L23.0186 33.2542L20.8535 31.0901C20.4684 30.7053 19.844 30.7051 19.459 31.0901C19.0741 31.4752 19.074 32.0995 19.459 32.4846L21.5312 34.5579C19.1718 36.1352 16.0388 36.0692 13.7441 34.3596L11.9463 36.1594C11.5611 36.5444 10.9359 36.5445 10.5508 36.1594C10.1658 35.7743 10.1659 35.1491 10.5508 34.7639L12.3496 32.9651C10.3771 30.3172 10.5923 26.5526 12.9961 24.1487L22.4727 15.0256L32.1006 24.6526ZM31.415 10.2346C31.8022 9.84759 32.4303 9.84751 32.8174 10.2346L36.6631 14.0803C37.0498 14.4674 37.0497 15.0946 36.6631 15.4817C36.2759 15.8688 35.6479 15.8688 35.2607 15.4817L34.0391 14.26L31.8555 16.4436L32.9707 17.5588C33.9668 18.5549 34.4657 19.053 34.6719 19.6194C34.8904 20.22 34.8904 20.8791 34.6719 21.4797C34.4657 22.0461 33.9668 22.5442 32.9707 23.5403L32.8164 23.6946L23.2031 14.0803L23.3564 13.926C24.3526 12.9298 24.8515 12.432 25.418 12.2258C26.0185 12.0073 26.6768 12.0073 27.2773 12.2258C27.8438 12.432 28.3426 12.9298 29.3389 13.926L30.4531 15.0413L32.6367 12.8586L31.415 11.637C31.028 11.2499 31.0282 10.6218 31.415 10.2346Z" fill="#008BFF"/>
<path d="M36.0306 30.0249C36.2243 30.5122 36.9192 30.5122 37.1129 30.0249L37.3017 29.5497C37.3609 29.4009 37.4795 29.2832 37.6295 29.2245L38.1082 29.0371C38.5993 28.8449 38.5993 28.1552 38.1082 27.963L37.6295 27.7756C37.4795 27.7169 37.3609 27.5991 37.3017 27.4503L37.1129 26.9752C36.9192 26.4878 36.2243 26.4878 36.0306 26.9752L35.8418 27.4503C35.7827 27.5991 35.664 27.7169 35.5141 27.7756L35.0353 27.963C34.5442 28.1552 34.5442 28.8449 35.0353 29.0371L35.5141 29.2245C35.664 29.2832 35.7827 29.4009 35.8418 29.5497L36.0306 30.0249Z" fill="#008BFF"/>
<path opacity="0.5" d="M30.6571 38.8315C30.8753 39.3807 31.6584 39.3807 31.8767 38.8315L32.4602 37.3631C32.5269 37.1954 32.6606 37.0627 32.8295 36.9966L34.3092 36.4174C34.8625 36.2008 34.8625 35.4236 34.3092 35.207L32.8295 34.6279C32.6606 34.5618 32.5269 34.429 32.4602 34.2614L31.8767 32.7929C31.6584 32.2437 30.8753 32.2437 30.6571 32.7929L30.0735 34.2614C30.0069 34.429 29.8732 34.5618 29.7042 34.6279L28.2246 35.207C27.6712 35.4236 27.6712 36.2008 28.2246 36.4174L29.7042 36.9966C29.8732 37.0627 30.0069 37.1954 30.0735 37.3631L30.6571 38.8315Z" fill="#008BFF"/>
<path opacity="0.5" d="M11.2718 16.777C11.4642 17.2648 12.1545 17.2648 12.3469 16.777L12.8613 15.4727C12.92 15.3238 13.0379 15.2059 13.1868 15.1471L14.4911 14.6327C14.9789 14.4404 14.9789 13.7501 14.4911 13.5577L13.1868 13.0433C13.0379 12.9845 12.92 12.8667 12.8613 12.7177L12.3469 11.4134C12.1545 10.9256 11.4642 10.9256 11.2718 11.4134L10.7574 12.7177C10.6987 12.8667 10.5808 12.9845 10.4319 13.0433L9.12754 13.5577C8.63978 13.7501 8.63978 14.4404 9.12754 14.6327L10.4319 15.1471C10.5808 15.2059 10.6987 15.3238 10.7574 15.4727L11.2718 16.777Z" fill="#008BFF"/>
</svg>
