<svg width="20" height="20" viewBox="0 0 20 20" fill="none" xmlns="http://www.w3.org/2000/svg">
<path fill-rule="evenodd" clip-rule="evenodd" d="M2.643 1.80956C1.66669 2.78587 1.66669 4.35722 1.66669 7.49992V10.8333C1.66669 13.9759 1.66669 15.5473 2.643 16.5236C3.61931 17.4999 5.19066 17.4999 8.33335 17.4999H11.6667C14.8094 17.4999 16.3807 17.4999 17.357 16.5236C18.3334 15.5473 18.3334 13.9759 18.3334 10.8333V7.49992C18.3334 4.35722 18.3334 2.78587 17.357 1.80956C16.3807 0.833252 14.8094 0.833252 11.6667 0.833252H8.33335C5.19066 0.833252 3.61931 0.833252 2.643 1.80956ZM10.4229 13.1018L10.4167 13.1051V6.06889L10.435 6.0586C10.8961 5.79181 11.6404 5.39455 12.25 5.22558C12.7004 5.10074 13.2838 5.04322 13.7973 5.018C14.4683 4.98505 15 5.53778 15 6.20954V10.7589C15 11.453 14.4339 12.0125 13.7418 12.0641C13.32 12.0955 12.8646 12.1485 12.5 12.2376C11.8029 12.4079 10.9312 12.834 10.4229 13.1018ZM5.00002 6.24699V10.7589C5.00002 11.453 5.56613 12.0125 6.25828 12.0641C6.68009 12.0955 7.13542 12.1485 7.50002 12.2376C8.19715 12.4079 9.06883 12.834 9.57715 13.1018L9.58335 13.1051V6.09237C9.57345 6.08763 9.56361 6.08269 9.55385 6.07757C9.04251 5.80917 8.18661 5.39333 7.50002 5.22558C7.12995 5.13516 6.66641 5.08195 6.23933 5.05068C5.55451 5.00053 5.00002 5.56034 5.00002 6.24699Z" fill="#9C5CFF"/>
</svg>
