<svg width="40" height="48" viewBox="0 0 40 48" fill="none" xmlns="http://www.w3.org/2000/svg">
<ellipse cx="22.5048" cy="18.1826" rx="1.18447" ry="1.42138" fill="#FFE0B2"/>
<path d="M20.1359 1.59985C21.3584 1.59985 22.3948 2.55269 22.7593 3.87304C23.0879 3.63306 23.4739 3.49502 23.8867 3.49502C24.6164 3.49502 25.2616 3.92734 25.6553 4.58974C26.285 3.90929 27.1183 3.49502 28.0324 3.49502C29.9949 3.49502 31.5858 5.40414 31.5858 7.75915C31.5858 7.9195 31.5774 8.07765 31.5631 8.2334C31.5707 8.23332 31.5782 8.23294 31.5858 8.23294C32.8942 8.23294 33.9548 9.50568 33.9548 11.0757C33.9548 11.2375 33.9425 11.396 33.9208 11.5504C33.9321 11.5501 33.9434 11.5495 33.9548 11.5495C34.827 11.5495 35.5341 12.398 35.5341 13.4447C35.5341 13.5386 35.5281 13.631 35.5171 13.7213C37.136 14.3986 38.2979 16.2459 38.2979 18.4195C38.2979 19.1813 38.1546 19.9028 37.8996 20.5483C38.381 20.9803 38.6927 21.6698 38.6927 22.4467C38.6927 23.755 37.8088 24.8157 36.7186 24.8157C36.2516 24.8157 35.8227 24.6208 35.4847 24.2956C34.6296 32.3382 28.8955 38.5556 21.9488 38.5556H18.0499C11.5226 38.5556 6.06633 33.0659 4.7219 25.7309C4.59793 25.7513 4.47151 25.7632 4.34288 25.7632C2.81649 25.7632 1.5791 24.2784 1.5791 22.4467C1.5791 20.9495 2.40578 19.684 3.54128 19.2717C3.29605 18.6547 3.1584 17.9642 3.1584 17.235C3.1584 14.9007 4.56525 12.9618 6.41687 12.5702C6.35194 12.3228 6.31701 12.0595 6.31701 11.7864C6.31701 10.3472 7.28924 9.18052 8.48854 9.18052C8.56536 9.18052 8.64127 9.18507 8.71603 9.1944C8.69648 9.03522 8.68596 8.87243 8.68596 8.70673C8.68596 6.87506 9.92334 5.39019 11.4497 5.39019C11.938 5.39019 12.3965 5.54272 12.7946 5.80938C13.4835 4.42346 14.7451 3.49502 16.1876 3.49502C16.6622 3.49502 17.1172 3.5954 17.5387 3.77957C17.9254 2.5078 18.9423 1.59985 20.1359 1.59985Z" fill="#FFCC81"/>
<path d="M7.94118 14.8374C8.42827 14.7335 8.89361 15.1232 8.98029 15.7077C9.06694 16.2922 8.74213 16.8506 8.25503 16.9546C8.06197 16.9959 7.87737 17.0824 7.71215 17.2091C7.54699 17.3358 7.40407 17.5002 7.29188 17.6931C7.17968 17.886 7.10037 18.1037 7.05822 18.3334C7.01607 18.5633 7.0123 18.8009 7.04665 19.0326C7.13331 19.6171 6.80847 20.1754 6.32139 20.2795C5.83423 20.3835 5.36896 19.9938 5.28228 19.4092C5.20673 18.8996 5.21544 18.3772 5.30811 17.8717C5.40082 17.3662 5.57563 16.8873 5.82246 16.4628C6.06933 16.0383 6.38363 15.676 6.74706 15.3972C7.11053 15.1184 7.51647 14.9281 7.94118 14.8374Z" fill="#FFE0B2"/>
<path d="M30.3676 15.381C30.4737 14.8011 30.9516 14.4343 31.4348 14.5616C31.8561 14.6726 32.2551 14.8819 32.6089 15.1779C32.9627 15.474 33.2647 15.851 33.4972 16.287C33.7297 16.723 33.8888 17.2099 33.9646 17.7195C34.0403 18.2291 34.0312 18.7518 33.9387 19.2574C33.8326 19.8374 33.3548 20.2042 32.8715 20.0768C32.3882 19.9494 32.0825 19.376 32.1886 18.7961C32.2307 18.5663 32.2346 18.3286 32.2002 18.097C32.1657 17.8654 32.0934 17.6441 31.9877 17.446C31.8821 17.2479 31.7448 17.0767 31.584 16.9421C31.4232 16.8076 31.2419 16.7122 31.0504 16.6617C30.5671 16.5344 30.2615 15.961 30.3676 15.381Z" fill="#FFE0B2"/>
<path d="M26.8484 11.0757C27.5026 11.0758 28.0329 11.7121 28.0329 12.4971C28.0329 13.2821 27.5026 13.9184 26.8484 13.9185C26.1943 13.9185 25.664 13.2821 25.664 12.4971C25.664 11.7121 26.1943 11.0757 26.8484 11.0757Z" fill="#FFE0B2"/>
<path d="M11.6477 11.0757C12.1928 11.0758 12.6347 11.6061 12.6347 12.2602C12.6347 12.9143 12.1928 13.4446 11.6477 13.4447C11.1025 13.4447 10.6606 12.9144 10.6606 12.2602C10.6606 11.606 11.1025 11.0757 11.6477 11.0757Z" fill="#FFE0B2"/>
<path d="M19.939 5.86401C20.4331 5.86403 20.9226 5.99322 21.3791 6.24434C21.8355 6.49545 22.2501 6.8636 22.5995 7.32749C23.0002 7.85972 23.0002 8.72282 22.5995 9.25505C22.1987 9.78723 21.5489 9.78726 21.1482 9.25505C20.9894 9.04417 20.8008 8.87688 20.5933 8.76275C20.3859 8.64864 20.1636 8.58972 19.939 8.58971C19.7145 8.58971 19.4921 8.64867 19.2847 8.76275C19.0772 8.87687 18.8886 9.04421 18.7299 9.25505C18.3291 9.78726 17.6789 9.78723 17.2782 9.25505C16.8776 8.72282 16.8775 7.85967 17.2782 7.32749C17.6275 6.8635 18.0424 6.49547 18.4989 6.24434C18.9554 5.99321 19.4449 5.86401 19.939 5.86401Z" fill="#FFE0B2"/>
<path d="M18.176 13.4626C19.4542 10.8288 22.2343 8.77748 23.8783 9.92624C25.3239 10.9364 25.4092 14.0842 24.54 16.62C25.2318 16.7942 25.8131 17.184 26.1467 17.8221C27.0683 19.5847 25.7543 22.5653 23.9346 23.9355C22.1148 25.3056 16.9213 27.8958 15.9997 26.1332C15.8285 25.8059 14.1476 29.1588 15.9227 25.5999C15.4778 26.171 16.1988 25.2371 15.5552 25.3332C13.8345 25.59 13.6377 21.613 13.3725 19.0549C13.1073 16.4967 14.202 13.3914 15.9227 13.1345C16.6213 13.0303 17.3156 13.4113 17.9118 14.0722C17.9911 13.8674 18.0786 13.6634 18.176 13.4626Z" fill="#00AE4C"/>
<path d="M16.3101 16.6313C16.6646 16.61 17.0658 19.3072 17.1662 21.704C17.2067 22.6699 17.1961 23.5648 17.1474 24.2906C17.2949 23.7676 18.3976 22.6147 19.8553 21.4967C21.5404 20.2042 23.604 19.0315 23.7952 19.3904C23.9861 19.7494 22.2327 21.504 20.5477 22.7964C18.8626 24.0889 17.3414 24.8459 17.1502 24.487C17.1444 24.476 17.1399 24.4639 17.1367 24.4511C17.0599 25.4355 16.907 26.0706 16.706 26.0828C16.3516 26.1036 15.9831 24.1781 15.8827 21.7816C15.7823 19.3849 15.9557 16.6532 16.3101 16.6313Z" fill="#08C359"/>
<path d="M19.6182 17.5825C20.6246 15.5086 22.0134 13.3333 22.3201 13.5476C22.6267 13.7621 21.7357 16.285 20.7293 18.3588C19.7229 20.4327 18.6582 21.9399 18.3515 21.7256C18.045 21.511 18.612 19.6562 19.6182 17.5825Z" fill="#08C359"/>
<path d="M11.1533 10.6228C15.1693 12.933 17.5383 21.4613 15.7616 24.304C13.9848 27.1468 7.79868 28.3486 4.26654 26.0829C0.734397 23.8172 -0.587313 18.5196 1.31442 14.2504C3.21614 9.98118 7.62116 8.35704 11.1533 10.6228Z" fill="#CE6504"/>
<path d="M1.3137 14.2507C3.21542 9.98147 7.6203 8.35725 11.1524 10.6229C12.4757 11.4718 13.6482 12.8486 14.4973 14.463C14.9094 16.3643 14.8412 18.333 14.0873 20.0256C12.1855 24.2947 6.64372 25.1899 3.11157 22.9243C2.08283 22.2644 1.24189 21.3468 0.613189 20.2728C0.254738 18.304 0.457323 16.1731 1.3137 14.2507Z" fill="#727D84"/>
<path d="M39.2305 23.394C39.692 23.3941 40.0572 23.8678 39.9924 24.4161C39.196 31.1578 35.145 36.887 29.4752 39.9522V43.7671C29.4752 44.8138 28.7681 45.6623 27.8959 45.6623H12.4977C11.6255 45.6622 10.9184 44.8137 10.9184 43.7671V40.1595C5.04268 37.1501 0.822237 31.3129 0.00747125 24.4161C-0.0572916 23.8679 0.307565 23.3941 0.768975 23.394H39.2305Z" fill="#FF6F6E"/>
<path d="M38.915 23.3943C36.0643 32.4813 28.0268 39.0291 18.5566 39.0291C11.6017 39.029 5.42054 35.4967 1.49805 30.0212C0.751267 28.2665 0.240372 26.3843 0.0078125 24.4158C-0.0567329 23.8678 0.307439 23.3947 0.768555 23.3943H38.915Z" fill="#FF8382"/>
</svg>
