<svg width="32" height="32" viewBox="0 0 32 32" fill="none" xmlns="http://www.w3.org/2000/svg">
<path d="M12.667 26.6667V29.3334C12.667 29.8857 13.1147 30.3334 13.667 30.3334C14.2193 30.3334 14.667 29.8857 14.667 29.3334V26.6667H12.667Z" fill="#9C5CFF"/>
<path d="M20.0003 26.6667H18.0003V29.3334C18.0003 29.8857 18.448 30.3334 19.0003 30.3334C19.5526 30.3334 20.0003 29.8857 20.0003 29.3334V26.6667Z" fill="#9C5CFF"/>
<path fill-rule="evenodd" clip-rule="evenodd" d="M23.1798 8.77969L23.5212 8.71134C24.0755 8.60037 24.6487 8.65335 25.1755 8.86426C26.0959 9.23279 27.1024 9.30163 28.0614 9.06166L28.1434 9.04115C28.8416 8.86642 29.3337 8.21741 29.3337 7.47122V4.63053C29.3337 3.64678 28.4481 2.92201 27.5276 3.15237C26.999 3.28465 26.4441 3.2467 25.9368 3.04356L25.8393 3.00454C24.99 2.66446 24.0657 2.57902 23.1719 2.75796L22.5737 2.87773C21.8538 3.02184 21.3337 3.67637 21.3337 4.43802V13.7077C21.3337 14.2374 21.7469 14.6667 22.2567 14.6667C22.7665 14.6667 23.1798 14.2374 23.1798 13.7077V8.77969Z" fill="#9C5CFF"/>
<path d="M19.3337 8.00008V13.7077C19.3337 15.2692 20.571 16.6668 22.2567 16.6668C23.9425 16.6668 25.1798 15.2692 25.1798 13.7077V10.9707C26.1944 11.2445 27.2598 11.2766 28.2936 11.06C28.9499 12.1824 29.3337 13.5389 29.3337 15.0001V23.2338C29.3337 25.1298 28.0162 26.6667 26.3911 26.6667H16.667V15.0001C16.667 12.2936 15.5575 9.70146 13.7104 8.00008H19.3337Z" fill="#9C5CFF"/>
<path fill-rule="evenodd" clip-rule="evenodd" d="M2.66699 15.0001C2.66699 11.1341 5.35328 8.00008 8.66699 8.00008C11.9807 8.00008 14.667 11.1341 14.667 15.0001V26.6667H5.64374C3.99973 26.6667 2.66699 25.1119 2.66699 23.1939V15.0001ZM5.66699 21.3334C5.66699 20.7811 6.11471 20.3334 6.66699 20.3334H10.667C11.2193 20.3334 11.667 20.7811 11.667 21.3334C11.667 21.8857 11.2193 22.3334 10.667 22.3334H6.66699C6.11471 22.3334 5.66699 21.8857 5.66699 21.3334Z" fill="#9C5CFF"/>
</svg>
