<svg width="32" height="32" viewBox="0 0 32 32" fill="none" xmlns="http://www.w3.org/2000/svg">
<g opacity="0.5">
<path d="M9.71385 7.77319L6.63008 10.2401C5.95511 10.7801 5.42644 11.464 5.07392 12.2299H26.0191C25.6709 11.4657 25.1477 10.7821 24.4787 10.2405L21.4308 7.77319H9.71385Z" fill="#19CE68"/>
<path fill-rule="evenodd" clip-rule="evenodd" d="M26.5127 14.5039C26.5127 14.4313 26.5112 14.359 26.5084 14.2868H4.5765C4.57312 14.3654 4.57141 14.4443 4.57141 14.5234V23.2003H17.2342C17.3868 22.9938 17.5571 22.7955 17.7453 22.6072L20.7773 19.5753C22.3449 18.0077 24.609 17.687 26.5127 18.4631V14.5039ZM16.5705 17.7151V16.001C16.5705 15.4329 16.1101 14.9725 15.542 14.9725C14.974 14.9725 14.5135 15.4329 14.5135 16.001V17.7151H12.7994C12.2314 17.7151 11.7709 18.1756 11.7709 18.7436C11.7709 19.3116 12.2314 19.772 12.7994 19.772H14.5135V21.4862C14.5135 22.0542 14.974 22.5147 15.542 22.5147C16.1101 22.5147 16.5705 22.0542 16.5705 21.4862V19.772H18.2847C18.8527 19.772 19.3132 19.3116 19.3132 18.7436C19.3132 18.1756 18.8527 17.7151 18.2847 17.7151H16.5705Z" fill="#19CE68"/>
<path d="M16.3276 25.2573C16.0238 26.7948 16.4178 28.4418 17.4408 29.714H11.369C10.5858 29.714 10.1942 29.714 9.823 29.6631C8.72189 29.5119 7.69267 29.0299 6.87164 28.2808C6.59486 28.0282 6.34416 27.7274 5.84279 27.1257C5.38077 26.5713 5.0363 25.9357 4.82329 25.2573H16.3276Z" fill="#19CE68"/>
</g>
<path opacity="0.5" d="M7.41951 3.13218C7.31512 3.38418 7.31512 3.70366 7.31512 4.34261C7.31512 4.98156 7.31512 5.30103 7.41951 5.55304C7.55869 5.88905 7.82565 6.156 8.16167 6.29518C8.41368 6.39957 8.73316 6.39957 9.37212 6.39957H11.4291H19.6571H21.7141C22.353 6.39957 22.6725 6.39957 22.9245 6.29518C23.2605 6.156 23.5275 5.88905 23.6667 5.55304C23.7711 5.30103 23.7711 4.98156 23.7711 4.34261C23.7711 3.70366 23.7711 3.38418 23.6667 3.13218C23.5275 2.79617 23.2605 2.52921 22.9245 2.39003C22.6725 2.28564 22.353 2.28564 21.7141 2.28564H9.37212C8.73316 2.28564 8.41368 2.28564 8.16167 2.39003C7.82565 2.52921 7.55869 2.79617 7.41951 3.13218Z" fill="#19CE68"/>
<path d="M21.5306 21.7318L22.2325 21.0298C23.4884 19.774 25.5671 19.8164 26.8753 21.1246C28.1836 22.4328 28.226 24.5114 26.9701 25.7673L26.2681 26.4693C26.209 26.3191 26.1333 26.1451 26.0373 25.9521C25.7271 25.3284 25.2058 24.5092 24.3483 23.6517C23.4907 22.7941 22.6714 22.2728 22.0477 21.9625C21.8547 21.8665 21.6808 21.7909 21.5306 21.7318Z" fill="#19CE68"/>
<path d="M19.8491 23.4132L19.2005 24.0618C17.9446 25.3177 17.987 27.3963 19.2953 28.7045C20.6035 30.0128 22.6821 30.0552 23.938 28.7993L24.5865 28.1509L24.4498 27.5066L24.4458 27.4912C24.4401 27.4702 24.4288 27.431 24.4101 27.3756C24.3727 27.2649 24.3059 27.09 24.1956 26.8682C23.9755 26.4257 23.5803 25.7927 22.8938 25.1062C22.2072 24.4196 21.5741 24.0244 21.1315 23.8042C20.9097 23.6939 20.7348 23.627 20.624 23.5896C20.5686 23.5709 20.5294 23.5596 20.5084 23.5539L20.4929 23.5499L19.8491 23.4132Z" fill="#19CE68"/>
<path d="M9.46197 7.77319L6.3782 10.2401C5.70323 10.7801 5.17456 11.464 4.82204 12.2299H25.7672C25.419 11.4657 24.8958 10.7821 24.2268 10.2405L21.1789 7.77319H9.46197Z" fill="#19CE68"/>
<path d="M16.0757 25.2573C15.7719 26.7948 16.1659 28.4418 17.1889 29.714H11.1171C10.3339 29.714 9.94234 29.714 9.57112 29.6631C8.47001 29.5119 7.44078 29.0299 6.61976 28.2808C6.34298 28.0282 6.09228 27.7274 5.59091 27.1257C5.12889 26.5713 4.78442 25.9357 4.57141 25.2573H16.0757Z" fill="#19CE68"/>
</svg>
