<svg width="22" height="22" viewBox="0 0 22 22" fill="none" xmlns="http://www.w3.org/2000/svg">
<path fill-rule="evenodd" clip-rule="evenodd" d="M14.5554 4.13288C14.2365 4.31698 13.8288 4.20773 13.6447 3.88886C13.4606 3.57 13.5698 3.16228 13.8887 2.97818L16.9679 1.2004C17.2014 1.06558 17.4931 1.0847 17.7071 1.24885C17.921 1.413 18.015 1.68985 17.9452 1.9503L17.0603 5.25264L18.7457 4.2796C19.0645 4.09551 19.4723 4.20476 19.6564 4.52362C19.8404 4.84248 19.7312 5.25021 19.4123 5.4343L16.3331 7.21208C16.0996 7.3469 15.8079 7.32778 15.594 7.16363C15.38 6.99949 15.2861 6.72264 15.3559 6.46219L16.2407 3.15984L14.5554 4.13288Z" fill="#19CE68"/>
<path fill-rule="evenodd" clip-rule="evenodd" d="M11.2646 5.46623C10.9457 5.28214 10.8364 4.87441 11.0205 4.55555C11.2046 4.23669 11.6124 4.12744 11.9312 4.31153L13.4708 5.20042C13.7043 5.33524 13.8337 5.59746 13.7985 5.86479C13.7633 6.13212 13.5705 6.35193 13.31 6.42172L12.4362 6.65587L12.5819 6.74002C12.9008 6.92412 13.01 7.33184 12.826 7.65071C12.6419 7.96957 12.2341 8.07882 11.9153 7.89472L10.3757 7.00583C10.1422 6.87101 10.0128 6.6088 10.048 6.34147C10.0832 6.07413 10.276 5.85432 10.5365 5.78453L11.4103 5.55038L11.2646 5.46623Z" fill="#19CE68"/>
<path fill-rule="evenodd" clip-rule="evenodd" d="M11.8084 2.89928C11.0467 2.81942 10.2737 3.18313 9.86567 3.88886C9.70595 4.16577 9.62001 4.46438 9.60134 4.76299C9.55968 4.79077 9.51888 4.82029 9.47938 4.85067C9.07313 5.16751 8.79579 5.63626 8.72634 6.16751C8.66905 6.60067 8.75586 7.02862 8.95768 7.39407C9.12999 7.70657 9.3865 7.97393 9.70898 8.16056L11.2485 9.04945C12.2051 9.60153 13.4286 9.27428 13.9807 8.31768C14.1174 8.0807 14.2003 7.82723 14.2329 7.57202C14.3648 7.82028 14.5501 8.04338 14.7823 8.22133C15.4243 8.71351 16.2993 8.77167 16.9998 8.36716L17.867 7.86629C18.3804 8.99042 18.6664 10.2396 18.6664 11.5555C18.6664 16.4644 14.6868 20.4444 9.77756 20.4444C4.86827 20.4444 0.888672 16.4644 0.888672 11.5555C0.888672 6.64667 4.86827 2.66664 9.77756 2.66664C10.4763 2.66664 11.156 2.7465 11.8084 2.89928ZM4.84093 10.0017C5.03885 9.98782 5.2411 10.0616 5.38433 10.2205C5.79753 10.6805 6.24197 10.8889 6.66645 10.8889C6.93077 10.8889 7.20291 10.8081 7.47027 10.6363C7.63259 10.5321 7.79275 10.3941 7.94857 10.2205C8.08919 10.0642 8.28754 9.98956 8.48285 10.0008C8.62869 10.0095 8.77279 10.0659 8.88997 10.171C9.16384 10.4175 9.18598 10.8385 8.93989 11.1128C8.34527 11.7734 7.56402 12.2222 6.66645 12.2222C5.76888 12.2222 4.98763 11.7734 4.39301 11.1128C4.14692 10.8385 4.16905 10.4175 4.44292 10.171C4.55751 10.0677 4.69813 10.0113 4.84093 10.0017ZM11.6066 10.2205C11.3605 9.94702 10.939 9.92445 10.6651 10.171C10.3913 10.4175 10.3691 10.8385 10.6152 11.1128C11.2099 11.7734 11.9911 12.2222 12.8887 12.2222C13.7862 12.2222 14.5675 11.7734 15.1621 11.1128C15.4082 10.8385 15.3861 10.4175 15.1122 10.171C14.8383 9.92445 14.4169 9.94702 14.1708 10.2205C13.7576 10.6805 13.3131 10.8889 12.8887 10.8889C12.4642 10.8889 12.0197 10.6805 11.6066 10.2205ZM10.6664 15.1111C10.6664 15.6024 10.2684 16 9.77756 16C9.28667 16 8.88867 15.6024 8.88867 15.1111C8.88867 14.6198 9.28667 14.2222 9.77756 14.2222C10.2684 14.2222 10.6664 14.6198 10.6664 15.1111Z" fill="#19CE68"/>
</svg>
