<svg width="32" height="32" viewBox="0 0 32 32" fill="none" xmlns="http://www.w3.org/2000/svg">
<path opacity="0.5" d="M18.1653 2.90496C17.6873 2.07865 16.7939 1.52271 15.7706 1.52271C14.7474 1.52271 13.854 2.07865 13.376 2.90496L18.1653 2.90496Z" fill="#5F6885"/>
<path fill-rule="evenodd" clip-rule="evenodd" d="M25.4472 9.81459V20.7084C25.4472 21.7598 25.0061 22.7629 24.2313 23.4737C22.1115 25.4184 19.4885 26.5016 16.8081 26.7233V28.1252C16.8081 28.6976 16.344 29.1616 15.7715 29.1616C15.1989 29.1616 14.7348 28.6976 14.7348 28.1252V26.7233C12.0544 26.5016 9.43145 25.4184 7.31161 23.4737C6.53679 22.7629 6.0957 21.7598 6.0957 20.7084V9.81458C6.0957 7.20879 6.0957 5.9059 6.90541 5.09638C7.71511 4.28687 9.01831 4.28687 11.6247 4.28687H19.9182C22.5246 4.28687 23.8278 4.28687 24.6375 5.09638C25.4472 5.9059 25.4472 7.20879 25.4472 9.81459ZM15.7715 16.7241C17.2983 16.7241 18.536 15.4352 18.536 13.8451C18.536 12.8502 17.4537 11.5224 16.6435 10.6677C16.1639 10.1618 15.3791 10.1618 14.8994 10.6677C14.0892 11.5224 13.007 12.8502 13.007 13.8451C13.007 15.4352 14.2447 16.7241 15.7715 16.7241ZM11.9703 20.87C11.9703 20.2976 12.4344 19.8336 13.007 19.8336H18.536C19.1085 19.8336 19.5727 20.2976 19.5727 20.87C19.5727 21.4424 19.1085 21.9065 18.536 21.9065H13.007C12.4344 21.9065 11.9703 21.4424 11.9703 20.87Z" fill="#5F6885"/>
<path d="M28.9653 20.9356C29.1835 21.4847 29.9666 21.4847 30.1848 20.9356L30.3976 20.4001C30.4642 20.2325 30.598 20.0998 30.7669 20.0336L31.3064 19.8225C31.8597 19.6059 31.8597 18.8287 31.3064 18.6121L30.7669 18.401C30.598 18.3348 30.4642 18.2021 30.3976 18.0345L30.1848 17.499C29.9666 16.9499 29.1835 16.9499 28.9653 17.499L28.7525 18.0345C28.6859 18.2021 28.5521 18.3348 28.3832 18.401L27.8437 18.6121C27.2904 18.8287 27.2904 19.6059 27.8437 19.8225L28.3832 20.0336C28.5521 20.0998 28.6859 20.2325 28.7525 20.4001L28.9653 20.9356Z" fill="#5F6885"/>
<path d="M1.53656 9.94263C1.75479 10.4918 2.53789 10.4918 2.75612 9.94263L2.96889 9.40721C3.03552 9.23955 3.16924 9.10684 3.33818 9.04071L3.87767 8.82955C4.431 8.61297 4.431 7.83579 3.87767 7.61921L3.33818 7.40804C3.16924 7.34192 3.03552 7.2092 2.96889 7.04154L2.75612 6.50612C2.53789 5.95697 1.75479 5.95697 1.53656 6.50612L1.32378 7.04154C1.25716 7.2092 1.12343 7.34192 0.954496 7.40804L0.414997 7.61921C-0.138332 7.83579 -0.138332 8.61297 0.414997 8.82955L0.954496 9.04071C1.12343 9.10684 1.25716 9.23955 1.32378 9.40721L1.53656 9.94263Z" fill="#5F6885"/>
<path opacity="0.5" d="M23.4188 31.5879C23.6371 32.137 24.4202 32.137 24.6384 31.5879L25.222 30.1194C25.2886 29.9517 25.4223 29.819 25.5912 29.7529L27.0709 29.1737C27.6243 28.9572 27.6243 28.18 27.0709 27.9634L25.5912 27.3842C25.4223 27.3181 25.2886 27.1854 25.222 27.0177L24.6384 25.5492C24.4202 25.0001 23.6371 25.0001 23.4188 25.5492L22.8352 27.0177C22.7686 27.1854 22.6349 27.3181 22.466 27.3842L20.9863 27.9634C20.433 28.18 20.433 28.9572 20.9863 29.1737L22.466 29.7529C22.6349 29.819 22.7686 29.9517 22.8352 30.1194L23.4188 31.5879Z" fill="#5F6885"/>
<rect opacity="0.3" x="10.667" y="9.24902" width="10.6667" height="13.7111" fill="#5F6885"/>
</svg>
