<svg width="32" height="32" viewBox="0 0 32 32" fill="none" xmlns="http://www.w3.org/2000/svg">
<path opacity="0.5" d="M13.7607 0C14.8872 0 15.8008 0.909687 15.8008 2.03125C15.8006 2.78272 15.3898 3.43898 14.7803 3.79004V4.13281C16.6215 4.35762 18.3083 5.10301 19.6846 6.21582C19.7107 6.18222 19.7395 6.14999 19.7705 6.11914L20.6289 5.26465C20.5838 5.09688 20.5596 4.9202 20.5596 4.73828C20.5597 3.61689 21.4724 2.70815 22.5986 2.70801C23.725 2.70801 24.6386 3.6168 24.6387 4.73828C24.6387 5.85984 23.7251 6.76953 22.5986 6.76953C22.416 6.76951 22.2387 6.74504 22.0703 6.7002L21.2119 7.55469C21.1809 7.58553 21.149 7.61458 21.1152 7.64062C21.4084 8.00006 21.6754 8.38118 21.915 8.78027C21.4577 9.01729 21.0282 9.32729 20.6445 9.71094L18.8057 11.5488C18.3091 11.3061 17.7507 11.169 17.1602 11.1689C15.0951 11.1689 13.4209 12.8364 13.4209 14.8926C13.4209 15.4862 13.5613 16.0469 13.8096 16.5449L9.23047 21.125C9.09062 21.2649 8.9639 21.4151 8.84863 21.5723C8.77771 21.5285 8.70545 21.487 8.63574 21.4414L6.76367 23.3516C6.89167 23.6657 6.9619 24.0093 6.96191 24.3691C6.96191 25.8645 5.74491 27.077 4.24316 27.0771C2.74127 27.0771 1.52344 25.8646 1.52344 24.3691C1.52349 22.8738 2.7413 21.6611 4.24316 21.6611C4.63489 21.6612 5.00728 21.7441 5.34375 21.8926L7.05078 20.1514C5.96541 19.0599 5.13856 17.7129 4.67188 16.2129C4.53232 16.2349 4.38893 16.2461 4.24316 16.2461C2.74127 16.2461 1.52344 15.0335 1.52344 13.5381C1.52364 12.0428 2.7414 10.8311 4.24316 10.8311C4.35995 10.8311 4.47499 10.8383 4.58789 10.8525C4.93115 9.62647 5.51873 8.50452 6.29492 7.54102L5.30469 6.55469C4.97851 6.69258 4.61985 6.76949 4.24316 6.76953C2.74127 6.76953 1.52344 5.55694 1.52344 4.06152C1.52345 2.56611 2.74128 1.35352 4.24316 1.35352C5.74491 1.35368 6.96191 2.56622 6.96191 4.06152C6.96191 4.43668 6.88559 4.79429 6.74707 5.11914L7.7373 6.10449C9.12986 4.99234 10.8522 4.27061 12.7412 4.10059V3.79004C12.1317 3.43898 11.7219 2.78272 11.7217 2.03125C11.7217 0.909706 12.6344 3.12448e-05 13.7607 0ZM9.68164 13.5381C8.93071 13.5381 8.32227 14.1449 8.32227 14.8926C8.32241 15.6401 8.9308 16.2461 9.68164 16.2461C10.4325 16.2461 11.0409 15.6402 11.041 14.8926C11.041 14.1449 10.4326 13.5381 9.68164 13.5381ZM15.46 14.8945V14.8926C15.46 13.9599 16.2183 13.2033 17.1543 13.2002L15.46 14.8945ZM11.7217 6.76953C10.5953 6.76953 9.68175 7.67833 9.68164 8.7998C9.68164 9.92137 10.5953 10.8311 11.7217 10.8311C12.8479 10.8308 13.7607 9.92122 13.7607 8.7998C13.7607 8.72133 13.7568 8.64354 13.748 8.56738C13.6733 7.91436 13.287 7.35543 12.7412 7.04102C12.4413 6.8683 12.093 6.76961 11.7217 6.76953Z" fill="#9C5CFF"/>
<path fill-rule="evenodd" clip-rule="evenodd" d="M11.8688 30.9457L11.3792 31.4353C10.6262 32.1882 9.40551 32.1882 8.65258 31.4353C7.89966 30.6824 7.89966 29.4616 8.65258 28.7087L9.14223 28.2191C9.69443 27.6669 9.96567 26.8936 9.87944 26.1175L9.76611 25.0975C9.63675 23.9333 10.0436 22.7734 10.8719 21.9451L22.2855 10.5315C24.2933 8.52368 27.5486 8.52368 29.5564 10.5315C31.5642 12.5393 31.5642 15.7946 29.5564 17.8024L28.4157 18.9431L26.7559 17.2832C26.382 16.9094 25.7759 16.9094 25.4021 17.2832C25.0283 17.6571 25.0283 18.2632 25.4021 18.637L27.0619 20.2968L24.3321 23.0267L22.6723 21.3668C22.2984 20.993 21.6923 20.993 21.3185 21.3668C20.9447 21.7407 20.9447 22.3468 21.3185 22.7206L22.9783 24.3804L20.236 27.1228L18.5761 25.463C18.2023 25.0891 17.5962 25.0891 17.2223 25.463C16.8485 25.8368 16.8485 26.4429 17.2223 26.8167L18.8822 28.4766L18.1428 29.216C17.3145 30.0443 16.1546 30.4511 14.9904 30.3218L13.9704 30.2084C13.1943 30.1222 12.421 30.3935 11.8688 30.9457ZM24.7192 16.7225C25.093 16.3486 25.093 15.7425 24.7192 15.3687C24.3454 14.9949 23.7393 14.9949 23.3654 15.3687L15.0691 23.665C14.6953 24.0388 14.6953 24.6449 15.0691 25.0188C15.443 25.3926 16.0491 25.3926 16.4229 25.0188L24.7192 16.7225Z" fill="#9C5CFF"/>
</svg>
