<svg width="24" height="24" viewBox="0 0 24 24" fill="none" xmlns="http://www.w3.org/2000/svg">
<path d="M5.28224 6.28223C8.42325 3.14122 13.2165 2.66031 16.8643 4.83789V3.80762C16.8643 2.97919 17.5358 2.30762 18.3643 2.30762C19.1926 2.30778 19.8643 2.97929 19.8643 3.80762V8.0498C19.8643 8.87813 19.1926 9.54964 18.3643 9.5498H14.1211C13.2928 9.54968 12.6211 8.87816 12.6211 8.0498C12.6213 7.43745 12.9885 6.91063 13.5147 6.67773C11.3907 6.17102 9.0606 6.74703 7.40333 8.4043C4.86541 10.9427 4.86509 15.0584 7.40333 17.5967C9.94174 20.1351 14.0583 20.1351 16.5967 17.5967C18.0723 16.1211 18.6905 14.1131 18.4492 12.1865C18.3465 11.3648 18.9293 10.6148 19.751 10.5117C20.573 10.4088 21.3229 10.9924 21.4258 11.8145C21.777 14.6202 20.8758 17.5598 18.7178 19.7178C15.0078 23.4278 8.99222 23.4278 5.28224 19.7178C1.57226 16.0078 1.57226 9.99221 5.28224 6.28223Z" fill="#6D6B76"/>
<path d="M13.3536 6.64645L17.1464 2.85355C17.4614 2.53857 18 2.76165 18 3.20711V7C18 7.27614 17.7761 7.5 17.5 7.5H13.7071C13.2617 7.5 13.0386 6.96143 13.3536 6.64645Z" fill="#6D6B76"/>
</svg>
