<svg width="132" height="132" viewBox="0 0 132 132" fill="none" xmlns="http://www.w3.org/2000/svg">
<path d="M0 66C0 29.5492 29.5492 0 66 0C102.451 0 132 29.5492 132 66C132 102.451 102.451 132 66 132C29.5492 132 0 102.451 0 66Z" fill="#9C5CFF"/>
<path fill-rule="evenodd" clip-rule="evenodd" d="M43.3334 57.5C44.507 57.5 45.4584 58.4514 45.4584 59.625V62.4583C45.4584 73.8031 54.6552 83 66 83C77.3449 83 86.5417 73.8031 86.5417 62.4583V59.625C86.5417 58.4514 87.4931 57.5 88.6667 57.5C89.8403 57.5 90.7917 58.4514 90.7917 59.625V62.4583C90.7917 75.4345 80.8223 86.0823 68.125 87.1602V93.625C68.125 94.7986 67.1736 95.75 66 95.75C64.8264 95.75 63.875 94.7986 63.875 93.625V87.1602C51.1777 86.0823 41.2084 75.4345 41.2084 62.4583V59.625C41.2084 58.4514 42.1598 57.5 43.3334 57.5Z" fill="#FAFAFA"/>
<path fill-rule="evenodd" clip-rule="evenodd" d="M66 37.6666C57.0024 37.6666 49.7084 44.9607 49.7084 53.9583V62.4583C49.7084 71.4559 57.0024 78.75 66 78.75C74.9977 78.75 82.2917 71.4559 82.2917 62.4583V53.9583C82.2917 44.9607 74.9977 37.6666 66 37.6666ZM71.6667 64.5833C72.8403 64.5833 73.7917 63.6319 73.7917 62.4583C73.7917 61.2847 72.8403 60.3333 71.6667 60.3333H60.3334C59.1598 60.3333 58.2084 61.2847 58.2084 62.4583C58.2084 63.6319 59.1598 64.5833 60.3334 64.5833H71.6667ZM70.9584 53.9583C70.9584 55.1319 70.007 56.0833 68.8334 56.0833H63.1667C61.9931 56.0833 61.0417 55.1319 61.0417 53.9583C61.0417 52.7847 61.9931 51.8333 63.1667 51.8333H68.8334C70.007 51.8333 70.9584 52.7847 70.9584 53.9583Z" fill="#FAFAFA"/>
</svg>
