<svg width="132" height="132" viewBox="0 0 132 132" fill="none" xmlns="http://www.w3.org/2000/svg">
<path d="M0 66C0 29.5492 29.5492 0 66 0C102.451 0 132 29.5492 132 66C132 102.451 102.451 132 66 132C29.5492 132 0 102.451 0 66Z" fill="#9C5CFF"/>
<path d="M43.3333 52.4C43.3333 48.126 43.3333 45.9889 44.661 44.6612C45.9888 43.3334 48.1259 43.3334 52.3999 43.3334C56.674 43.3334 58.811 43.3334 60.1388 44.6612C61.4666 45.9889 61.4666 48.126 61.4666 52.4V79.6C61.4666 83.8741 61.4666 86.0111 60.1388 87.3389C58.811 88.6667 56.674 88.6667 52.3999 88.6667C48.1259 88.6667 45.9888 88.6667 44.661 87.3389C43.3333 86.0111 43.3333 83.8741 43.3333 79.6V52.4Z" fill="#FAFAFA"/>
<path d="M70.5333 52.4C70.5333 48.126 70.5333 45.9889 71.861 44.6612C73.1888 43.3334 75.3259 43.3334 79.5999 43.3334C83.874 43.3334 86.011 43.3334 87.3388 44.6612C88.6666 45.9889 88.6666 48.126 88.6666 52.4V79.6C88.6666 83.8741 88.6666 86.0111 87.3388 87.3389C86.011 88.6667 83.874 88.6667 79.5999 88.6667C75.3259 88.6667 73.1888 88.6667 71.861 87.3389C70.5333 86.0111 70.5333 83.8741 70.5333 79.6V52.4Z" fill="#FAFAFA"/>
</svg>
