<svg width="40" height="48" viewBox="0 0 40 48" fill="none" xmlns="http://www.w3.org/2000/svg">
<g clip-path="url(#clip0_1090_18431)">
<path opacity="0.5" d="M13.5595 16.2922C13.4202 13.2365 15.4427 10.6667 17.9872 10.6667H29.9034C32.4478 10.6667 34.4704 13.2365 34.331 16.2922L33.1147 42.9588C32.9858 45.7866 31.0417 48 28.6871 48H19.2034C16.8488 48 14.9048 45.7866 14.7758 42.9588L13.5595 16.2922Z" fill="#60FCFF"/>
<path d="M13.5595 16.2922C13.4202 13.2365 15.4427 10.6667 17.9872 10.6667H29.9034C32.4478 10.6667 34.4704 13.2365 34.331 16.2922L33.1147 42.9588C32.9858 45.7866 31.0417 48 28.6871 48H19.2034C16.8488 48 14.9048 45.7866 14.7758 42.9588L13.5595 16.2922Z" fill="#2FF3F0"/>
<path d="M34.0236 15.9359C34.0236 22.6661 29.4874 21.0667 23.8917 21.0667C18.296 21.0667 13.7598 22.6661 13.7598 15.9359C13.7598 9.20567 18.296 3.74976 23.8917 3.74976C29.4874 3.74976 34.0236 9.20567 34.0236 15.9359Z" fill="#12D6D7"/>
<path opacity="0.3" d="M23.8916 3.74976C29.4873 3.74983 34.0234 9.20611 34.0234 15.9363C34.0234 16.4399 33.9937 16.936 33.9443 17.4236C33.6456 17.4704 33.3263 17.4988 32.9844 17.4988C28.3082 12.8119 20.7741 14.9985 21.0342 7.18726C21.0342 6.11775 21.1696 5.08598 21.4209 4.11597C22.2118 3.87758 23.0393 3.74976 23.8916 3.74976Z" fill="white"/>
<path d="M18.5576 27.7334C23.7881 27.7334 25.6187 33.0865 31.6337 33.0865C32.4317 33.0865 32.8976 33.3057 33.4796 33.6001L33.2579 41.6C33.1802 45.7208 31.4842 48 28.1134 48H19.9858C15.5207 48 14.9202 45.2556 14.7635 41.7459L14.1904 28.9037C15.4803 28.1506 16.9455 27.7334 18.5576 27.7334Z" fill="#1ED448"/>
<ellipse opacity="0.5" cx="18.9562" cy="37.7923" rx="1.55876" ry="1.56232" fill="white"/>
<ellipse opacity="0.5" cx="29.088" cy="35.9337" rx="1.29897" ry="1.56232" fill="white"/>
<rect x="10.6426" y="14.9985" width="26.4989" height="7.49915" rx="3.74958" fill="#01C3C8"/>
<path d="M37.6904 0.081519C38.6576 -0.244084 39.6609 0.434877 39.9317 1.59807C40.2024 2.76127 39.6379 3.968 38.6708 4.29369L33.5338 6.02384C33.2798 6.10937 33.0788 6.34365 33 6.64633L24.4498 39.8997C24.1496 41.0525 23.1295 41.6942 22.171 41.3333C21.2126 40.9723 20.679 39.7453 20.9791 38.5925L29.5293 5.3391C29.976 3.62361 31.1137 2.29639 32.5529 1.81167L37.6904 0.081519Z" fill="#EEDA13"/>
<rect opacity="0.8" x="17.917" y="14.9985" width="19.2247" height="7.49915" rx="3.74958" fill="#60EDF0"/>
<path opacity="0.4" d="M13.7471 22.1851L34.0109 22.1851L33.0585 42.9602C32.9289 45.7873 30.985 47.9999 28.6309 47.9999H19.1289C16.775 47.9999 14.8312 45.7876 14.7014 42.9607L13.7471 22.1851Z" fill="#76E7E5"/>
<ellipse opacity="0.5" cx="19.216" cy="27.3677" rx="1.29897" ry="1.56232" fill="white"/>
<path d="M19.0041 37.0286H1.90039L2.95193 44.5536C3.22807 46.5296 4.9182 48 6.91344 48H13.9911C15.9863 48 17.6765 46.5296 17.9526 44.5536L19.0041 37.0286Z" fill="#FBBFA0"/>
<path d="M11.9726 24.2285C12.3254 24.2285 12.6531 24.357 12.9254 24.5771C13.6451 25.159 14.3169 26.101 15.1551 26.3685C18.4651 27.4247 20.9045 31.0525 20.9046 35.366C20.9046 36.2841 20.2856 37.0285 19.5223 37.0285H1.38226C0.618931 37.0285 0 36.2841 0 35.366C6.30902e-05 30.9182 2.5936 27.1995 6.06096 26.2772C6.93368 26.0451 7.66054 25.0862 8.42399 24.5272C8.68283 24.3377 8.98683 24.2285 9.31204 24.2285H11.9726Z" fill="#FF6A9A"/>
<path d="M12.5703 39.9316C12.7069 39.1925 13.3161 38.7257 13.9307 38.8896C14.5451 39.0542 14.9333 39.7872 14.7969 40.5264L13.416 48H11.0791L12.5703 39.9316ZM6.97461 38.8896C7.58915 38.7258 8.19839 39.1925 8.33496 39.9316L9.82617 48H7.48926L6.1084 40.5264C5.97189 39.787 6.35992 39.0539 6.97461 38.8896Z" fill="#EAA987"/>
<ellipse cx="10.8953" cy="22.1714" rx="2.47054" ry="2.97143" fill="#FF2929"/>
<path d="M18 25C18 25.5523 17.7761 26 17.5 26C17.2239 26 17 25.5523 17 25C17 24.4477 17.2239 24 17.5 24C17.7761 24 18 24.4477 18 25Z" fill="#F8FCDB"/>
<path d="M8 24C8 24.5523 7.55228 25 7 25C6.44772 25 6 24.5523 6 24C6 23.4477 6.44772 23 7 23C7.55228 23 8 23.4477 8 24Z" fill="#F8FCDB"/>
<path d="M16 29C16 29.5523 15.7761 30 15.5 30C15.2239 30 15 29.5523 15 29C15 28.4477 15.2239 28 15.5 28C15.7761 28 16 28.4477 16 29Z" fill="#AEE6FB"/>
<path d="M14 23C14 23.5523 13.7761 24 13.5 24C13.2239 24 13 23.5523 13 23C13 22.4477 13.2239 22 13.5 22C13.7761 22 14 22.4477 14 23Z" fill="#AEE6FB"/>
<path d="M3.19922 28.5C3.19922 28.7761 2.97536 29 2.69922 29C2.42308 29 2.19922 28.7761 2.19922 28.5C2.19922 28.2239 2.42308 28 2.69922 28C2.97536 28 3.19922 28.2239 3.19922 28.5Z" fill="#AEE6FB"/>
<path d="M12 28C12 28.5523 11.5523 29 11 29C10.4477 29 10 28.5523 10 28C10 27.4477 10.4477 27 11 27C11.5523 27 12 27.4477 12 28Z" fill="#FE6A5F"/>
</g>
<defs>
<clipPath id="clip0_1090_18431">
<rect width="40" height="48" fill="white"/>
</clipPath>
</defs>
</svg>
