<svg width="15" height="15" viewBox="0 0 15 15" fill="none" xmlns="http://www.w3.org/2000/svg">
<path fill-rule="evenodd" clip-rule="evenodd" d="M5.6943 0.900204C5.51166 1.05585 5.42033 1.13368 5.3228 1.19905C5.09922 1.34891 4.84813 1.45291 4.58407 1.50504C4.46888 1.52778 4.34928 1.53733 4.11006 1.55642C3.50902 1.60438 3.2085 1.62836 2.95778 1.71692C2.37788 1.92175 1.92175 2.37788 1.71692 2.95778C1.62836 3.2085 1.60438 3.50902 1.55642 4.11006C1.53733 4.34928 1.52778 4.46888 1.50504 4.58407C1.45291 4.84813 1.34891 5.09922 1.19905 5.3228C1.13368 5.42033 1.05586 5.51165 0.900204 5.6943C0.509126 6.15321 0.313578 6.38267 0.198912 6.62258C-0.0663039 7.17746 -0.0663039 7.82254 0.198912 8.37742C0.313579 8.61733 0.509121 8.84678 0.900204 9.3057C1.05584 9.48833 1.13369 9.57968 1.19905 9.6772C1.34891 9.90078 1.45291 10.1519 1.50504 10.4159C1.52778 10.5311 1.53733 10.6507 1.55642 10.8899C1.60438 11.491 1.62836 11.7915 1.71692 12.0422C1.92175 12.6221 2.37788 13.0783 2.95778 13.2831C3.2085 13.3716 3.50902 13.3956 4.11006 13.4436C4.34928 13.4627 4.46888 13.4722 4.58407 13.495C4.84813 13.5471 5.09922 13.6511 5.3228 13.8009C5.42033 13.8663 5.51165 13.9441 5.6943 14.0998C6.15322 14.4909 6.38267 14.6864 6.62258 14.8011C7.17746 15.0663 7.82254 15.0663 8.37742 14.8011C8.61733 14.6864 8.84678 14.4909 9.3057 14.0998C9.48835 13.9441 9.57967 13.8663 9.67721 13.8009C9.90078 13.6511 10.1519 13.5471 10.4159 13.495C10.5311 13.4722 10.6507 13.4627 10.8899 13.4436C11.491 13.3956 11.7915 13.3716 12.0422 13.2831C12.6221 13.0783 13.0783 12.6221 13.2831 12.0422C13.3716 11.7915 13.3956 11.491 13.4436 10.8899C13.4627 10.6507 13.4722 10.5311 13.495 10.4159C13.5471 10.1519 13.6511 9.90078 13.8009 9.67721C13.8663 9.57967 13.9441 9.48835 14.0998 9.3057C14.4909 8.84678 14.6864 8.61733 14.8011 8.37742C15.0663 7.82254 15.0663 7.17746 14.8011 6.62258C14.6864 6.38267 14.4909 6.15322 14.0998 5.6943C13.9441 5.51165 13.8663 5.42033 13.8009 5.3228C13.6511 5.09922 13.5471 4.84813 13.495 4.58407C13.4722 4.46888 13.4627 4.34928 13.4436 4.11006C13.3956 3.50902 13.3716 3.2085 13.2831 2.95778C13.0783 2.37788 12.6221 1.92175 12.0422 1.71692C11.7915 1.62836 11.491 1.60438 10.8899 1.55642C10.6507 1.53733 10.5311 1.52778 10.4159 1.50504C10.1519 1.45291 9.90078 1.34891 9.6772 1.19905C9.57967 1.13368 9.48835 1.05586 9.3057 0.900204C8.84678 0.509121 8.61733 0.313579 8.37742 0.198912C7.82254 -0.0663039 7.17746 -0.0663039 6.62258 0.198912C6.38267 0.313578 6.15321 0.509125 5.6943 0.900204ZM10.7801 5.89735C11.0185 5.65898 11.0185 5.2725 10.7801 5.03412C10.5417 4.79575 10.1553 4.79575 9.91688 5.03412L6.2792 8.67181L5.08309 7.4757C4.84472 7.23733 4.45824 7.23733 4.21987 7.4757C3.98149 7.71408 3.98149 8.10056 4.21987 8.33893L5.84759 9.96665C6.08596 10.205 6.47244 10.205 6.71081 9.96665L10.7801 5.89735Z" fill="#6D6B76"/>
</svg>
