<svg width="32" height="32" viewBox="0 0 32 32" fill="none" xmlns="http://www.w3.org/2000/svg">
<path fill-rule="evenodd" clip-rule="evenodd" d="M12.1478 1.92043C11.7582 2.25249 11.5634 2.41852 11.3553 2.55798C10.8783 2.87767 10.3427 3.09954 9.77936 3.21076C9.53362 3.25927 9.27845 3.27964 8.76813 3.32036C7.48591 3.42268 6.8448 3.47384 6.30993 3.66277C5.07281 4.09973 4.09973 5.07281 3.66277 6.30993C3.47384 6.8448 3.42268 7.48591 3.32036 8.76813C3.27964 9.27845 3.25927 9.53362 3.21076 9.77936C3.09954 10.3427 2.87767 10.8783 2.55798 11.3553C2.41852 11.5634 2.25249 11.7582 1.92043 12.1478C1.08614 13.1268 0.668967 13.6164 0.424345 14.1282C-0.141448 15.3119 -0.141448 16.6881 0.424345 17.8718C0.668969 18.3836 1.08612 18.8731 1.92043 19.8522C2.25246 20.2418 2.41853 20.4366 2.55798 20.6447C2.87767 21.1217 3.09954 21.6573 3.21076 22.2206C3.25927 22.4664 3.27964 22.7215 3.32036 23.2319C3.42268 24.5141 3.47384 25.1552 3.66277 25.6901C4.09973 26.9272 5.07281 27.9003 6.30993 28.3372C6.8448 28.5262 7.48591 28.5773 8.76813 28.6796C9.27845 28.7204 9.53362 28.7407 9.77936 28.7892C10.3427 28.9005 10.8783 29.1223 11.3553 29.442C11.5634 29.5815 11.7582 29.7475 12.1478 30.0796C13.1269 30.9139 13.6164 31.331 14.1282 31.5757C15.3119 32.1414 16.6881 32.1414 17.8718 31.5757C18.3836 31.331 18.8731 30.9139 19.8522 30.0796C20.2418 29.7475 20.4366 29.5815 20.6447 29.442C21.1217 29.1223 21.6573 28.9005 22.2206 28.7892C22.4664 28.7407 22.7215 28.7204 23.2319 28.6796C24.5141 28.5773 25.1552 28.5262 25.6901 28.3372C26.9272 27.9003 27.9003 26.9272 28.3372 25.6901C28.5262 25.1552 28.5773 24.5141 28.6796 23.2319C28.7204 22.7215 28.7407 22.4664 28.7892 22.2206C28.9005 21.6573 29.1223 21.1217 29.442 20.6447C29.5815 20.4366 29.7475 20.2418 30.0796 19.8522C30.9139 18.8731 31.331 18.3836 31.5757 17.8718C32.1414 16.6881 32.1414 15.3119 31.5757 14.1282C31.331 13.6164 30.9139 13.1269 30.0796 12.1478C29.7475 11.7582 29.5815 11.5634 29.442 11.3553C29.1223 10.8783 28.9005 10.3427 28.7892 9.77936C28.7407 9.53362 28.7204 9.27845 28.6796 8.76813C28.5773 7.48591 28.5262 6.8448 28.3372 6.30993C27.9003 5.07281 26.9272 4.09973 25.6901 3.66277C25.1552 3.47384 24.5141 3.42268 23.2319 3.32036C22.7215 3.27964 22.4664 3.25927 22.2206 3.21076C21.6573 3.09954 21.1217 2.87767 20.6447 2.55798C20.4366 2.41852 20.2418 2.25249 19.8522 1.92043C18.8731 1.08612 18.3836 0.668969 17.8718 0.424345C16.6881 -0.141448 15.3119 -0.141448 14.1282 0.424345C13.6164 0.668967 13.1268 1.08613 12.1478 1.92043ZM22.9976 12.581C23.5061 12.0725 23.5061 11.248 22.9976 10.7395C22.489 10.2309 21.6646 10.2309 21.156 10.7395L13.3956 18.4999L10.8439 15.9482C10.3354 15.4396 9.51091 15.4396 9.00238 15.9482C8.49385 16.4567 8.49385 17.2812 9.00238 17.7897L12.4748 21.2622C12.9834 21.7707 13.8079 21.7707 14.3164 21.2622L22.9976 12.581Z" fill="#00C1FF"/>
</svg>
