<svg width="20" height="20" viewBox="0 0 20 20" fill="none" xmlns="http://www.w3.org/2000/svg">
<path d="M8.00212 2.88495C8.24982 2.64475 8.64558 2.65045 8.8859 2.89797C9.1261 3.14567 9.1204 3.54143 8.87288 3.78176L6.54215 6.04168L15 6.04168C15.3452 6.04168 15.625 6.32151 15.625 6.66668C15.625 7.01186 15.3452 7.29168 15 7.29168L6.54215 7.29168L8.87288 9.55161C9.1204 9.79193 9.1261 10.1877 8.8859 10.4354C8.64558 10.6829 8.24982 10.6886 8.00212 10.4484L4.56462 7.11509C4.44341 6.9974 4.375 6.83564 4.375 6.66668C4.375 6.49773 4.44341 6.33597 4.56462 6.21828L8.00212 2.88495Z" fill="#6D6B76"/>
<path d="M11.9979 9.55169C11.7502 9.3115 11.3544 9.3172 11.1141 9.56472C10.8739 9.81242 10.8796 10.2082 11.1271 10.4485L13.4578 12.7084L5 12.7084C4.65482 12.7084 4.375 12.9883 4.375 13.3334C4.375 13.6786 4.65482 13.9584 5 13.9584L13.4578 13.9584L11.1271 16.2184C10.8796 16.4587 10.8739 16.8544 11.1141 17.1022C11.3544 17.3497 11.7502 17.3554 11.9979 17.1152L15.4354 13.7818C15.5566 13.6641 15.625 13.5024 15.625 13.3334C15.625 13.1645 15.5566 13.0027 15.4354 12.885L11.9979 9.55169Z" fill="#6D6B76"/>
</svg>
