<svg width="24" height="24" viewBox="0 0 24 24" fill="none" xmlns="http://www.w3.org/2000/svg">
<path fill-rule="evenodd" clip-rule="evenodd" d="M12 2C16.714 2 19.0707 2.00038 20.5352 3.46484C21.9996 4.92931 22 7.28595 22 12C22 16.714 21.9996 19.0707 20.5352 20.5352C19.0707 21.9996 16.714 22 12 22C7.28595 22 4.92931 21.9996 3.46484 20.5352C2.00038 19.0707 2 16.714 2 12C2 7.28595 2.00038 4.92931 3.46484 3.46484C4.92931 2.00038 7.28595 2 12 2ZM12.0498 7.2998C11.6358 7.29994 11.2999 7.63576 11.2998 8.0498V12.0498C11.2998 12.2486 11.379 12.4394 11.5195 12.5801L14.0195 15.0801C14.3124 15.373 14.7872 15.3729 15.0801 15.0801C15.373 14.7872 15.373 14.3124 15.0801 14.0195L12.7998 11.7393V8.0498C12.7997 7.63568 12.464 7.2998 12.0498 7.2998Z" fill="#7B2AF3"/>
</svg>
