<svg width="116" height="116" viewBox="0 0 116 116" fill="none" xmlns="http://www.w3.org/2000/svg">
<path fill-rule="evenodd" clip-rule="evenodd" d="M60.3462 6.48428C72.2068 3.96324 83.8654 11.5344 86.3865 23.395L95.516 66.346C98.037 78.2066 90.4658 89.8652 78.6052 92.3862L35.6543 101.516C23.7937 104.037 12.1351 96.4656 9.61403 84.605L0.484526 41.654C-2.03652 29.7934 5.53467 18.1348 17.3953 15.6138L60.3462 6.48428Z" fill="#FFC5C5"/>
<path d="M25.1483 53.0385C29.4608 32.7499 31.617 22.6057 39.2595 17.6425C46.902 12.6794 57.0463 14.8356 77.3347 19.1481C97.6232 23.4605 107.767 25.6167 112.73 33.2593C117.694 40.9018 115.537 51.0461 111.225 71.3346C106.912 91.6232 104.756 101.767 97.1137 106.731C89.4712 111.694 79.3269 109.537 59.0385 105.225C38.75 100.913 28.6058 98.7564 23.6427 91.1139C18.6796 83.4713 20.8358 73.327 25.1483 53.0385Z" fill="#FF4646"/>
<path d="M77.3347 19.1481C79.8813 19.6894 82.2687 20.1967 84.5055 20.6852L74.1211 69.54C73.7581 71.2476 71.5345 71.7032 70.5292 70.2761L35.6785 20.7897C36.7291 19.5605 37.908 18.5202 39.2595 17.6425C46.902 12.6794 57.0463 14.8356 77.3347 19.1481Z" fill="url(#paint0_linear_1090_20304)"/>
<path d="M58.2407 39.4084C56.6263 37.1399 53.4782 36.6091 51.2096 38.2232C48.9411 39.8376 48.4103 42.9857 50.0244 45.2543L67.7037 70.0979C68.8634 71.7275 70.877 72.5174 72.8355 72.1112C74.794 71.705 76.3274 70.1797 76.7433 68.2232L81.0315 48.0489C81.6104 45.3253 79.8718 42.6481 77.1482 42.0692C74.4247 41.4903 71.7475 43.2289 71.1685 45.9525L69.2664 54.9013L58.2407 39.4084Z" fill="white"/>
<defs>
<linearGradient id="paint0_linear_1090_20304" x1="140.431" y1="52.36" x2="64.3983" y2="96.9061" gradientUnits="userSpaceOnUse">
<stop stop-color="#FF9292" stop-opacity="0"/>
<stop offset="1" stop-color="#FF7676"/>
</linearGradient>
</defs>
</svg>
