<svg width="116" height="116" viewBox="0 0 116 116" fill="none" xmlns="http://www.w3.org/2000/svg">
<path fill-rule="evenodd" clip-rule="evenodd" d="M60.3461 6.48428C72.2067 3.96324 83.8653 11.5344 86.3863 23.395L95.5158 66.346C98.0369 78.2066 90.4657 89.8652 78.6051 92.3862L35.6542 101.516C23.7936 104.037 12.135 96.4656 9.61391 84.605L0.484404 41.654C-2.03664 29.7934 5.53455 18.1348 17.3951 15.6138L60.3461 6.48428Z" fill="#B8FAD3"/>
<path d="M25.1482 53.0385C29.4607 32.75 31.6169 22.6057 39.2595 17.6426C46.902 12.6794 57.0463 14.8357 77.3349 19.1481C97.6234 23.4606 107.768 25.6168 112.731 33.2594C117.694 40.9019 115.538 51.0462 111.225 71.3347C106.913 91.6233 104.757 101.768 97.114 106.731C89.4714 111.694 79.3272 109.538 59.0386 105.225C38.7501 100.913 28.6058 98.7564 23.6427 91.1139C18.6795 83.4713 20.8358 73.327 25.1482 53.0385Z" fill="#19CE68"/>
<path d="M77.3349 19.1481C79.8816 19.6894 82.2685 20.1966 84.5053 20.6851L75.2444 64.2542C74.7671 66.4997 73.4642 68.4845 71.594 69.8159L32.0411 97.9729C28.2703 96.2139 25.5668 94.0768 23.6427 91.1139C18.6795 83.4713 20.8358 73.327 25.1482 53.0385C29.4607 32.75 31.6169 22.6057 39.2595 17.6426C46.902 12.6794 57.0463 14.8357 77.3349 19.1481Z" fill="url(#paint0_linear_1090_898)"/>
<path d="M81.2226 47.1513C81.8015 44.4277 80.0629 41.7505 77.3393 41.1716C74.6158 40.5927 71.9385 42.3313 71.3596 45.0549L67.3015 64.1469L56.9184 71.2226C54.6175 72.7906 54.0233 75.9272 55.5913 78.2281C57.1594 80.529 60.2959 81.1232 62.5968 79.5552L74.6516 71.3403C75.7245 70.6092 76.4739 69.4922 76.7439 68.2223L81.2226 47.1513Z" fill="white"/>
<defs>
<linearGradient id="paint0_linear_1090_898" x1="108.363" y1="13.1338" x2="103.476" y2="73.0691" gradientUnits="userSpaceOnUse">
<stop stop-color="#41E688" stop-opacity="0"/>
<stop offset="1" stop-color="#41E688"/>
</linearGradient>
</defs>
</svg>
