<svg width="20" height="20" viewBox="0 0 20 20" fill="none" xmlns="http://www.w3.org/2000/svg">
<path d="M2.5 5.32173C2.5 4.91801 2.78782 4.59074 3.14286 4.59074L5.36306 4.59035C5.80419 4.57763 6.19335 4.25869 6.34345 3.78685C6.3474 3.77444 6.35193 3.75914 6.36821 3.70361L6.46388 3.37721C6.52242 3.17709 6.57342 3.00274 6.64479 2.84689C6.92674 2.23121 7.4484 1.80368 8.05122 1.69422C8.20381 1.66651 8.3654 1.66663 8.55088 1.66677L11.4493 1.66677C11.6347 1.66663 11.7963 1.66651 11.9489 1.69422C12.5517 1.80368 13.0734 2.23121 13.3554 2.84689C13.4267 3.00274 13.4777 3.17709 13.5363 3.37721L13.6319 3.70361C13.6482 3.75914 13.6527 3.77444 13.6567 3.78685C13.8068 4.25869 14.2732 4.57803 14.7143 4.59074H16.8571C17.2122 4.59074 17.5 4.91801 17.5 5.32173C17.5 5.72544 17.2122 6.05271 16.8571 6.05271L3.14286 6.05271C2.78782 6.05271 2.5 5.72544 2.5 5.32173Z" fill="#ED1515"/>
<path fill-rule="evenodd" clip-rule="evenodd" d="M9.663 18.3335H10.337C12.6559 18.3335 13.8154 18.3335 14.5693 17.5952C15.3231 16.857 15.4003 15.646 15.5545 13.2239L15.7768 9.73402C15.8605 8.41986 15.9023 7.76278 15.5241 7.3464C15.1459 6.93001 14.5073 6.93001 13.23 6.93001H6.77004C5.49272 6.93001 4.85407 6.93001 4.47588 7.3464C4.09769 7.76278 4.13953 8.41986 4.22323 9.73403L4.44549 13.2239C4.59975 15.646 4.67687 16.857 5.43074 17.5952C6.18461 18.3335 7.34407 18.3335 9.663 18.3335ZM8.53856 10.1573C8.50422 9.79571 8.19794 9.53193 7.85448 9.56809C7.51101 9.60424 7.26042 9.92664 7.29477 10.2882L7.71143 14.6741C7.74578 15.0357 8.05206 15.2995 8.39552 15.2633C8.73899 15.2272 8.98958 14.9048 8.95523 14.5432L8.53856 10.1573ZM12.1455 9.56809C12.489 9.60424 12.7396 9.92664 12.7052 10.2882L12.2886 14.6741C12.2542 15.0357 11.9479 15.2995 11.6045 15.2633C11.261 15.2272 11.0104 14.9048 11.0448 14.5432L11.4614 10.1573C11.4958 9.79571 11.8021 9.53193 12.1455 9.56809Z" fill="#ED1515"/>
</svg>
