<svg width="29" height="32" viewBox="0 0 29 32" fill="none" xmlns="http://www.w3.org/2000/svg">
<path d="M8.62233 29.187C9.97741 30.8976 12.1062 32 14.5 32C16.8938 32 19.0226 30.8976 20.3777 29.187C16.4759 29.712 12.5241 29.712 8.62233 29.187Z" fill="#F93B93"/>
<path d="M25.3736 11.2V12.3266C25.3736 13.6785 25.7621 15.0003 26.4902 16.1252L28.2744 18.8818C29.9041 21.3998 28.66 24.8223 25.8255 25.6185C18.4106 27.7015 10.5894 27.7015 3.17447 25.6185C0.340019 24.8223 -0.904118 21.3998 0.725578 18.8818L2.50979 16.1252C3.23788 15.0003 3.6264 13.6785 3.6264 12.3266V11.2C3.6264 5.01441 8.49468 0 14.5 0C20.5053 0 25.3736 5.01441 25.3736 11.2Z" fill="#F93B93"/>
</svg>
