<svg width="24" height="24" viewBox="0 0 24 24" fill="none" xmlns="http://www.w3.org/2000/svg">
<path d="M16.4998 19.071L12 14.5713L7.50025 19.071C6.79021 19.7811 5.639 19.7811 4.92896 19.071C4.21896 18.361 4.21893 17.2098 4.92896 16.4997L9.42873 12L4.92896 7.50019C4.21891 6.79015 4.21891 5.63894 4.92896 4.9289C5.639 4.21885 6.79021 4.21885 7.50025 4.9289L12 9.42867L16.4998 4.9289C17.2098 4.21887 18.361 4.2189 19.0711 4.9289C19.7811 5.63894 19.7811 6.79015 19.0711 7.50019L14.5713 12L19.0711 16.4997C19.7811 17.2098 19.7811 18.361 19.0711 19.071C18.361 19.7811 17.2098 19.7811 16.4998 19.071Z" fill="#7B2AF3"/>
</svg>
